<svg width="48" height="48" viewBox="0 0 48 48" fill="none" xmlns="http://www.w3.org/2000/svg">
<rect width="48" height="48" rx="24" fill="#DEECCF"/>
<path d="M32.8401 16.6101C32.3294 16.0991 31.7229 15.6938 31.0555 15.4172C30.388 15.1406 29.6726 14.9983 28.9501 14.9983C28.2276 14.9983 27.5122 15.1406 26.8448 15.4172C26.1773 15.6938 25.5709 16.0991 25.0601 16.6101L24.0001 17.6701L22.9401 16.6101C21.9084 15.5784 20.5092 14.9988 19.0501 14.9988C17.5911 14.9988 16.1918 15.5784 15.1601 16.6101C14.1284 17.6418 13.5488 19.0411 13.5488 20.5001C13.5488 21.9591 14.1284 23.3584 15.1601 24.3901L16.2201 25.4501L24.0001 33.2301L31.7801 25.4501L32.8401 24.3901C33.3511 23.8794 33.7565 23.2729 34.033 22.6055C34.3096 21.938 34.4519 21.2226 34.4519 20.5001C34.4519 19.7776 34.3096 19.0622 34.033 18.3948C33.7565 17.7273 33.3511 17.1209 32.8401 16.6101V16.6101Z" stroke="#98C045" stroke-width="2" stroke-linecap="round" stroke-linejoin="round"/>
</svg>
