<svg width="40" height="40" viewBox="0 0 40 40" fill="none" xmlns="http://www.w3.org/2000/svg">
<path d="M13.125 10.625C13.125 10.4592 13.1908 10.3003 13.308 10.1831C13.4253 10.0658 13.5842 10 13.75 10H26.25C26.4157 10 26.5747 10.0658 26.6919 10.1831C26.8091 10.3003 26.875 10.4592 26.875 10.625C26.875 11.2975 26.86 11.9375 26.8325 12.545C27.3264 12.6268 27.7989 12.8066 28.2222 13.074C28.6455 13.3413 29.011 13.6907 29.2971 14.1015C29.5832 14.5123 29.7842 14.9763 29.8881 15.466C29.9921 15.9558 29.9969 16.4614 29.9023 16.953C29.8078 17.4446 29.6157 17.9123 29.3375 18.3285C29.0593 18.7448 28.7006 19.1011 28.2824 19.3764C27.8643 19.6518 27.3953 19.8407 26.9031 19.9319C26.4108 20.0231 25.9052 20.0148 25.4162 19.9075C24.4287 22.2388 23.0687 23.3788 21.875 23.6713V26.3875L23.6562 26.8325C23.8987 26.8925 24.1275 27.0012 24.3275 27.1512L26.625 28.875C26.7299 28.9537 26.8074 29.0634 26.8466 29.1886C26.8857 29.3139 26.8844 29.4482 26.8429 29.5726C26.8014 29.6971 26.7218 29.8053 26.6154 29.882C26.509 29.9587 26.3812 30 26.25 30H13.75C13.6188 30 13.491 29.9587 13.3845 29.882C13.2781 29.8053 13.1985 29.6971 13.1571 29.5726C13.1156 29.4482 13.1143 29.3139 13.1534 29.1886C13.1925 29.0634 13.27 28.9537 13.375 28.875L15.6725 27.1512C15.8725 27.0012 16.1012 26.8925 16.3437 26.8325L18.125 26.3875V23.6713C16.9312 23.3788 15.5712 22.2388 14.5837 19.9063C14.0945 20.0141 13.5885 20.0228 13.0959 19.9319C12.6032 19.841 12.1337 19.6523 11.7151 19.3769C11.2966 19.1015 10.9375 18.745 10.659 18.3285C10.3805 17.912 10.1883 17.444 10.0938 16.952C9.9992 16.4599 10.0042 15.954 10.1084 15.4639C10.2127 14.9739 10.4141 14.5097 10.7007 14.0988C10.9874 13.6878 11.3534 13.3385 11.7773 13.0714C12.2012 12.8044 12.6743 12.6249 13.1687 12.5438C13.1393 11.9046 13.1247 11.2648 13.125 10.625V10.625ZM13.2487 13.8C12.5965 13.9193 12.0183 14.2929 11.6415 14.8385C11.2647 15.3841 11.12 16.0571 11.2394 16.7094C11.3587 17.3616 11.7323 17.9398 12.2779 18.3166C12.8235 18.6934 13.4965 18.8381 14.1487 18.7187C13.7325 17.4062 13.4137 15.7862 13.2487 13.8V13.8ZM25.8525 18.7187C26.5048 18.8381 27.1777 18.6934 27.7233 18.3166C28.2689 17.9398 28.6425 17.3616 28.7619 16.7094C28.8812 16.0571 28.7366 15.3841 28.3597 14.8385C27.9829 14.2929 27.4048 13.9193 26.7525 13.8C26.5862 15.7875 26.2675 17.4062 25.8525 18.7187Z" fill="#7AB738"/>
</svg>
