<svg width="20" height="21" viewBox="0 0 20 21" fill="none" xmlns="http://www.w3.org/2000/svg">
<path d="M0 5.12598C0 4.46294 0.263392 3.82705 0.732233 3.35821C1.20107 2.88937 1.83696 2.62598 2.5 2.62598H17.5C18.163 2.62598 18.7989 2.88937 19.2678 3.35821C19.7366 3.82705 20 4.46294 20 5.12598V15.126C20 15.789 19.7366 16.4249 19.2678 16.8937C18.7989 17.3626 18.163 17.626 17.5 17.626H2.5C1.83696 17.626 1.20107 17.3626 0.732233 16.8937C0.263392 16.4249 0 15.789 0 15.126V5.12598ZM2.5 3.87598C2.16848 3.87598 1.85054 4.00767 1.61612 4.24209C1.3817 4.47651 1.25 4.79446 1.25 5.12598V5.39723L10 10.6472L18.75 5.39723V5.12598C18.75 4.79446 18.6183 4.47651 18.3839 4.24209C18.1495 4.00767 17.8315 3.87598 17.5 3.87598H2.5ZM18.75 6.85473L12.8025 10.4235L18.75 14.0185V6.85598V6.85473ZM18.7075 15.4522L11.5887 11.151L10 12.1047L8.41 11.151L1.2925 15.451C1.364 15.7165 1.52106 15.9511 1.73936 16.1183C1.95766 16.2855 2.22501 16.3761 2.5 16.376H17.5C17.7748 16.3762 18.0421 16.2858 18.2603 16.1188C18.4786 15.9518 18.6358 15.7175 18.7075 15.4522V15.4522ZM1.25 14.0185L7.1975 10.4235L1.25 6.85473V14.0172V14.0185Z" fill="#7AB738"/>
</svg>
