<svg width="40" height="40" viewBox="0 0 40 40" fill="none" xmlns="http://www.w3.org/2000/svg">
<path d="M20.5875 11.6475C20.4066 11.5512 20.2049 11.5008 20 11.5008C19.7951 11.5008 19.5934 11.5512 19.4125 11.6475L11.9125 15.6475C11.7125 15.754 11.5453 15.9128 11.4286 16.107C11.3119 16.3012 11.2502 16.5235 11.25 16.75V17.7725L18.405 22.1038L20 21.1463L21.595 22.1038L28.75 17.7725V16.75C28.7498 16.5235 28.6881 16.3012 28.5714 16.107C28.4547 15.9128 28.2875 15.754 28.0875 15.6475L20.5875 11.6475V11.6475ZM28.75 19.235L22.8075 22.8313L28.75 26.3963V19.2338V19.235ZM28.7063 27.8275L20 22.6038L11.2937 27.8288C11.3659 28.0934 11.5231 28.3269 11.741 28.4934C11.959 28.6599 12.2257 28.7501 12.5 28.75H27.5C27.7744 28.75 28.0413 28.6596 28.2593 28.4929C28.4773 28.3262 28.6343 28.0924 28.7063 27.8275ZM11.25 26.3963L17.1925 22.8313L11.25 19.2338V26.3963ZM18.8238 10.5438C19.1858 10.3507 19.5897 10.2498 20 10.2498C20.4103 10.2498 20.8142 10.3507 21.1762 10.5438L28.6762 14.5438C29.0761 14.757 29.4106 15.0749 29.6437 15.4635C29.8769 15.8521 30 16.2968 30 16.75V27.5C30 28.163 29.7366 28.7989 29.2678 29.2678C28.7989 29.7366 28.163 30 27.5 30H12.5C11.837 30 11.2011 29.7366 10.7322 29.2678C10.2634 28.7989 10 28.163 10 27.5V16.75C9.99995 16.2968 10.1231 15.8521 10.3563 15.4635C10.5894 15.0749 10.9239 14.757 11.3238 14.5438L18.8238 10.5438V10.5438Z" fill="#7AB738"/>
</svg>
