<svg width="40" height="40" viewBox="0 0 40 40" fill="none" xmlns="http://www.w3.org/2000/svg">
<path fill-rule="evenodd" clip-rule="evenodd" d="M19.9998 13.75C21.3506 13.7505 22.6649 14.1887 23.7458 14.9988C24.8267 15.8089 25.6161 16.9475 25.9956 18.2438C26.3752 19.5402 26.3245 20.9247 25.8512 22.1899C25.3779 23.455 24.5075 24.5328 23.3702 25.2618C22.233 25.9908 20.8902 26.3317 19.543 26.2335C18.1958 26.1352 16.9166 25.6032 15.8971 24.717C14.8776 23.8308 14.1727 22.6382 13.8879 21.3177C13.6031 19.9973 13.7538 18.6201 14.3173 17.3925C14.3787 17.2432 14.3799 17.076 14.3208 16.9259C14.2616 16.7758 14.1467 16.6543 14.0001 16.587C13.8534 16.5196 13.6864 16.5116 13.534 16.5646C13.3816 16.6176 13.2556 16.7275 13.1823 16.8713C12.5061 18.3445 12.3254 19.9972 12.6672 21.5817C13.0091 23.1663 13.8552 24.5974 15.0787 25.6608C16.3022 26.7242 17.8373 27.3625 19.454 27.4802C21.0708 27.5979 22.6821 27.1886 24.0467 26.3136C25.4113 25.4387 26.4557 24.1452 27.0235 22.6268C27.5912 21.1085 27.6518 19.447 27.196 17.8914C26.7403 16.3358 25.7928 14.9696 24.4955 13.9977C23.1981 13.0257 21.6208 12.5003 19.9998 12.5V13.75Z" fill="#7AB738"/>
<path d="M20.0002 15.5825V10.6675C20.0001 10.6081 19.9832 10.55 19.9513 10.4999C19.9194 10.4498 19.874 10.4098 19.8202 10.3846C19.7664 10.3594 19.7066 10.3501 19.6477 10.3577C19.5888 10.3653 19.5333 10.3895 19.4877 10.4275L16.5377 12.885C16.5025 12.9143 16.4742 12.951 16.4548 12.9925C16.4354 13.034 16.4253 13.0792 16.4253 13.125C16.4253 13.1708 16.4354 13.216 16.4548 13.2575C16.4742 13.299 16.5025 13.3357 16.5377 13.365L19.4877 15.8225C19.5333 15.8605 19.5888 15.8847 19.6477 15.8923C19.7066 15.8999 19.7664 15.8906 19.8202 15.8654C19.874 15.8402 19.9194 15.8002 19.9513 15.7501C19.9832 15.7 20.0001 15.6419 20.0002 15.5825V15.5825Z" fill="#7AB738"/>
</svg>
