<svg width="40" height="40" viewBox="0 0 40 40" fill="none" xmlns="http://www.w3.org/2000/svg">
<path d="M19.5713 17.8088C19.7088 17.3963 20.2913 17.3963 20.4288 17.8088L21.235 20.23C21.4125 20.7623 21.7115 21.2459 22.1083 21.6425C22.5051 22.0391 22.9889 22.3378 23.5213 22.515L25.9413 23.3213C26.3538 23.4588 26.3538 24.0413 25.9413 24.1788L23.52 24.985C22.9878 25.1625 22.5042 25.4615 22.1075 25.8583C21.7109 26.2552 21.4122 26.7389 21.235 27.2713L20.4288 29.6913C20.3991 29.7816 20.3417 29.8603 20.2647 29.916C20.1877 29.9718 20.0951 30.0018 20 30.0018C19.9049 30.0018 19.8123 29.9718 19.7353 29.916C19.6583 29.8603 19.6009 29.7816 19.5713 29.6913L18.765 27.27C18.5877 26.7379 18.2889 26.2544 17.8922 25.8578C17.4956 25.4612 17.0121 25.1624 16.48 24.985L14.0588 24.1788C13.9684 24.1491 13.8898 24.0917 13.834 24.0147C13.7782 23.9377 13.7482 23.8451 13.7482 23.75C13.7482 23.655 13.7782 23.5623 13.834 23.4853C13.8898 23.4083 13.9684 23.3509 14.0588 23.3213L16.48 22.515C17.0121 22.3377 17.4956 22.0389 17.8922 21.6423C18.2889 21.2457 18.5877 20.7621 18.765 20.23L19.5713 17.8088ZM14.7425 11.435C14.7604 11.3809 14.795 11.3338 14.8412 11.3004C14.8874 11.267 14.943 11.249 15 11.249C15.057 11.249 15.1126 11.267 15.1588 11.3004C15.2051 11.3338 15.2396 11.3809 15.2575 11.435L15.7413 12.8875C15.9575 13.535 16.465 14.0425 17.1125 14.2588L18.565 14.7425C18.6191 14.7604 18.6662 14.795 18.6996 14.8412C18.733 14.8874 18.751 14.943 18.751 15C18.751 15.057 18.733 15.1126 18.6996 15.1588C18.6662 15.2051 18.6191 15.2396 18.565 15.2575L17.1125 15.7413C16.7932 15.8477 16.503 16.027 16.265 16.265C16.027 16.503 15.8477 16.7932 15.7413 17.1125L15.2575 18.565C15.2396 18.6192 15.2051 18.6663 15.1588 18.6996C15.1126 18.733 15.057 18.751 15 18.751C14.943 18.751 14.8874 18.733 14.8412 18.6996C14.795 18.6663 14.7604 18.6192 14.7425 18.565L14.2588 17.1125C14.1524 16.7932 13.9731 16.503 13.735 16.265C13.497 16.027 13.2069 15.8477 12.8875 15.7413L11.435 15.2575C11.3809 15.2396 11.3338 15.2051 11.3004 15.1588C11.267 15.1126 11.249 15.057 11.249 15C11.249 14.943 11.267 14.8874 11.3004 14.8412C11.3338 14.795 11.3809 14.7604 11.435 14.7425L12.8875 14.2588C13.2069 14.1524 13.497 13.9731 13.735 13.7351C13.9731 13.497 14.1524 13.2069 14.2588 12.8875L14.7425 11.435ZM23.5788 10.1238C23.5911 10.0882 23.6142 10.0573 23.6449 10.0355C23.6756 10.0136 23.7123 10.0019 23.75 10.0019C23.7877 10.0019 23.8244 10.0136 23.8551 10.0355C23.8858 10.0573 23.9089 10.0882 23.9213 10.1238L24.2438 11.0913C24.3875 11.5238 24.7263 11.8625 25.1588 12.0063L26.1263 12.3288C26.1618 12.3411 26.1927 12.3642 26.2146 12.3949C26.2364 12.4256 26.2481 12.4624 26.2481 12.5C26.2481 12.5377 26.2364 12.5744 26.2146 12.6051C26.1927 12.6358 26.1618 12.6589 26.1263 12.6713L25.1588 12.9938C24.9456 13.0647 24.7519 13.1843 24.5931 13.3431C24.4343 13.502 24.3147 13.6956 24.2438 13.9088L23.9213 14.8763C23.9089 14.9119 23.8858 14.9427 23.8551 14.9646C23.8244 14.9864 23.7877 14.9981 23.75 14.9981C23.7123 14.9981 23.6756 14.9864 23.6449 14.9646C23.6142 14.9427 23.5911 14.9119 23.5788 14.8763L23.2563 13.9088C23.1854 13.6956 23.0657 13.502 22.9069 13.3431C22.7481 13.1843 22.5544 13.0647 22.3413 12.9938L21.375 12.6713C21.3394 12.6589 21.3086 12.6358 21.2867 12.6051C21.2649 12.5744 21.2531 12.5377 21.2531 12.5C21.2531 12.4624 21.2649 12.4256 21.2867 12.3949C21.3086 12.3642 21.3394 12.3411 21.375 12.3288L22.3425 12.0063C22.775 11.8625 23.1138 11.5238 23.2575 11.0913L23.5788 10.125V10.1238Z" fill="#7AB738"/>
</svg>
