<svg width="40" height="40" viewBox="0 0 40 40" fill="none" xmlns="http://www.w3.org/2000/svg">
<path fill-rule="evenodd" clip-rule="evenodd" d="M29.5879 18.8327L28.2379 17.1577C28.0212 16.8796 27.8873 16.546 27.8516 16.1952L27.6141 14.0727C27.566 13.6486 27.3756 13.2533 27.0738 12.9514C26.7721 12.6494 26.377 12.4587 25.9529 12.4102L23.8291 12.1727C23.4541 12.1352 23.1291 11.974 22.8541 11.7615L21.1816 10.4127C20.8484 10.1464 20.4345 10.0013 20.0079 10.0013C19.5813 10.0013 19.1674 10.1464 18.8341 10.4127L17.1591 11.7627C16.8811 11.9798 16.5475 12.1141 16.1966 12.1502L14.0741 12.3877C13.1991 12.4877 12.5116 13.1752 12.4116 14.049L12.1741 16.1727C12.1366 16.5477 11.9754 16.8727 11.7629 17.1477L10.4129 18.819C10.1466 19.1522 10.0015 19.5661 10.0015 19.9927C10.0015 20.4193 10.1466 20.8332 10.4129 21.1665L11.7629 22.8415C11.9754 23.1165 12.1129 23.4415 12.1504 23.804L12.3879 25.9265C12.4879 26.8015 13.1754 27.489 14.0491 27.589L16.1729 27.8265C16.5479 27.864 16.8729 28.0252 17.1479 28.2377L18.8216 29.5877C19.5091 30.1365 20.4829 30.1365 21.1691 29.5877L22.8441 28.2377C23.1191 28.0252 23.4441 27.8877 23.8066 27.8502L25.9291 27.6127C26.8041 27.5127 27.4916 26.8252 27.5916 25.9515L27.8291 23.8277C27.8666 23.4527 28.0279 23.1277 28.2404 22.8527L29.5904 21.179C29.8567 20.8457 30.0018 20.4318 30.0018 20.0052C30.0018 19.5786 29.8567 19.1647 29.5904 18.8315L29.5879 18.8327ZM18.1254 25.0127L13.7504 20.6377L15.6254 18.7627L18.1254 21.2627L24.3754 15.0127L26.2504 16.9502L18.1254 25.0127Z" fill="#7AB738"/>
</svg>
