<svg width="20" height="21" viewBox="0 0 20 21" fill="none" xmlns="http://www.w3.org/2000/svg">
<path d="M19.9991 10.4761C19.9991 9.63344 19.931 9.01853 19.7836 8.38086H10.2031V12.1841H15.8267C15.7133 13.1293 15.1011 14.5527 13.7405 15.5091L13.7214 15.6365L16.7506 17.9933L16.9605 18.0144C18.8879 16.2266 19.9991 13.5961 19.9991 10.4761Z" fill="#4285F4"/>
<path d="M10.2016 20.4969C12.9567 20.4969 15.2696 19.5859 16.959 18.0145L13.739 15.5093C12.8773 16.1128 11.7209 16.5341 10.2016 16.5341C7.50322 16.5341 5.21299 14.7464 4.39658 12.2754L4.27691 12.2856L1.12713 14.7338L1.08594 14.8488C2.76393 18.1966 6.21065 20.4969 10.2016 20.4969Z" fill="#34A853"/>
<path d="M4.39905 12.2749C4.18364 11.6372 4.05897 10.9539 4.05897 10.248C4.05897 9.54191 4.18364 8.8587 4.38772 8.22103L4.38201 8.08523L1.19276 5.59766L1.08841 5.64751C0.39683 7.03675 0 8.59682 0 10.248C0 11.8991 0.39683 13.4591 1.08841 14.8483L4.39905 12.2749Z" fill="#FBBC05"/>
<path d="M10.2016 3.9627C12.1177 3.9627 13.4102 4.79395 14.1472 5.48862L17.027 2.66459C15.2583 1.01346 12.9567 0 10.2016 0C6.21065 0 2.76393 2.30018 1.08594 5.64798L4.38525 8.2215C5.21299 5.7505 7.50322 3.9627 10.2016 3.9627Z" fill="#EB4335"/>
</svg>
