<svg version="1.2" xmlns="http://www.w3.org/2000/svg" viewBox="0 0 978 135" width="1400" height="193">
	<title>3-line-text-svg</title>
	<defs>
		<clipPath clipPathUnits="userSpaceOnUse" id="cp1">
			<path d="m9-169h960v540h-960z"/>
		</clipPath>
	</defs>
	<style>
		.s0 { fill: none } 
		.s1 { fill: #999999 } 
		.s2 { fill: #94c045 } 
		.s3 { fill: #000000 } 
	</style>
	<g id="Clip-Path" clip-path="url(#cp1)">
		<g id="Layer">
			<path id="Layer" fill-rule="evenodd" class="s0" d="m9-169h960v540h-960z"/>
			<path id="Layer" fill-rule="evenodd" class="s0" d="m41.7-122.3h894.6v60.1h-894.6z"/>
			<path id="Layer" fill-rule="evenodd" class="s0" d="m9-7.3h960v358.6h-960z"/>
			<path id="Layer" class="s1" d="m30.1 37.8q-1 0-1.6-0.5-0.6-0.5-1-1.5l-7.8-22.1q-0.4-1.2 0.2-2 0.6-0.8 1.9-0.8 1.1 0 1.6 0.5 0.6 0.4 0.9 1.4l6.7 20h-1.5l7-19.9q0.4-1 1-1.5 0.5-0.5 1.4-0.5 0.9 0 1.5 0.5 0.5 0.5 0.8 1.5l6.8 19.9h-1.3l6.9-20q0.3-0.9 0.9-1.4 0.5-0.5 1.5-0.5 1.2 0 1.7 0.8 0.6 0.8 0.2 2l-7.9 22.1q-0.3 1-1 1.5-0.5 0.5-1.5 0.5-1.1 0-1.7-0.5-0.6-0.5-0.9-1.5l-6.5-18.5h0.8l-6.5 18.5q-0.4 1-1 1.5-0.6 0.5-1.6 0.5zm34.9-0.3q-1.3 0-1.9-0.6-0.7-0.7-0.7-1.9v-21.3q0-1.2 0.7-1.8 0.6-0.7 1.9-0.7h13.3q0.9 0 1.4 0.5 0.5 0.5 0.5 1.4 0 0.9-0.5 1.4-0.5 0.5-1.4 0.5h-11.3v7.2h10.5q0.9 0 1.4 0.5 0.5 0.5 0.5 1.5 0 0.9-0.5 1.4-0.5 0.5-1.4 0.5h-10.5v7.6h11.3q0.9 0 1.4 0.5 0.5 0.5 0.5 1.4 0 0.9-0.5 1.4-0.5 0.5-1.4 0.5z"/>
			<path id="Layer" fill-rule="evenodd" class="s2" d="m95.1 37.8q-0.9 0-1.5-0.4-0.5-0.4-0.6-1.1-0.1-0.7 0.3-1.6l9.8-21.8q0.5-1.1 1.2-1.5 0.7-0.5 1.6-0.5 0.8 0 1.5 0.5 0.7 0.4 1.2 1.5l9.9 21.8q0.4 0.9 0.3 1.6-0.1 0.7-0.6 1.1-0.6 0.4-1.4 0.4-1.1 0-1.6-0.5-0.6-0.5-1.1-1.5l-1.8-4.4h-12.9l-1.8 4.4q-0.5 1-1 1.5-0.5 0.5-1.5 0.5zm17.2-6.4h1.4l-2-1.3zm-12.8 0l0.5-1.3-2 1.3zm6.4-15l-4.8 11.2h9.6l-4.8-11.2zm-4.7 11.2h-1.4l0.9 1.2zm9.6 0l0.5 1.2 0.9-1.2zm14.4 10.2q-1.2 0-1.8-0.7-0.6-0.6-0.6-1.8v-21.7q0-1.2 0.6-1.8 0.7-0.6 1.8-0.6h9q4.3 0 6.7 2.1 2.3 2 2.3 5.7 0 2.5-1 4.2-1.1 1.8-3.1 2.7-0.8 0.4-1.7 0.6 0.5 0.2 1 0.5 1.2 0.8 2 2.4l2.8 5.2q0.5 0.8 0.5 1.5-0.1 0.7-0.6 1.2-0.5 0.5-1.5 0.5-1 0-1.7-0.4-0.6-0.5-1.1-1.4l-3.8-6.9q-0.6-1.3-1.6-1.7-0.9-0.4-2.3-0.4h-3.5v8.3q0 1.2-0.6 1.8-0.6 0.7-1.8 0.7zm12.2-11.3q-0.8-0.2-1.6-0.2h-1.3l-0.3 0.5q1.7 0 3.2-0.3zm-9.8-3.1h5.8q2.6 0 3.9-1.1 1.3-1 1.3-3.1 0-2.1-1.3-3.2-1.3-1.1-3.9-1.1h-5.8zm23.3 14.1q-1.2 0-1.8-0.6-0.7-0.7-0.7-1.9v-21.3q0-1.2 0.7-1.8 0.6-0.7 1.8-0.7h13.4q0.9 0 1.4 0.5 0.5 0.5 0.5 1.4 0 0.9-0.5 1.4-0.5 0.5-1.4 0.5h-11.3v7.3h10.4q1 0 1.5 0.4 0.5 0.5 0.5 1.5 0 0.9-0.5 1.4-0.5 0.5-1.5 0.5h-10.4v7.6h11.3q0.9 0 1.4 0.5 0.5 0.5 0.5 1.4 0 0.9-0.5 1.4-0.5 0.5-1.4 0.5z"/>
			<path id="Layer" fill-rule="evenodd" class="s3" d="m183.8 37.7q-1.4 0-2.6-0.2-1.3-0.3-2.4-0.7-1-0.5-1.9-1.2-0.2-0.2-0.3-0.4 0-0.2 0-0.4 0.1-0.1 0.2-0.3 0.2-0.1 0.4-0.1 0.2 0 0.4 0.2 1.3 1 2.7 1.5 1.5 0.5 3.5 0.5 2.8 0 4.2-1.1 1.5-1.1 1.5-3 0-1.5-1.1-2.4-1-0.8-3.4-1.3l-2.7-0.6q-2.7-0.5-4-1.7-1.2-1.3-1.2-3.3 0-1.3 0.4-2.3 0.5-1.1 1.4-1.8 0.9-0.7 2.2-1.2 1.2-0.4 2.7-0.4 1.8 0 3.4 0.6 1.5 0.5 2.8 1.7 0.2 0.1 0.2 0.4 0.1 0.2 0 0.4-0.1 0.1-0.2 0.2-0.1 0.1-0.3 0.1-0.2 0-0.4-0.2-1.2-1-2.6-1.5-1.3-0.5-2.9-0.5-1.7 0-2.9 0.5-1.2 0.6-1.9 1.6-0.7 1-0.7 2.4 0 1.6 0.9 2.5 1 1 3.1 1.4l2.8 0.5q2.8 0.6 4.2 1.8 1.4 1.1 1.4 3.1 0 1.2-0.5 2.1-0.5 1-1.3 1.7-0.9 0.7-2.2 1.1-1.3 0.3-2.9 0.3zm11.5-0.2q-0.3 0-0.5-0.2-0.2-0.1-0.2-0.5v-18.3q0-0.4 0.2-0.5 0.2-0.2 0.5-0.2h10.8q0.3 0 0.4 0.1 0.2 0.2 0.2 0.4 0 0.3-0.2 0.4-0.1 0.2-0.4 0.2h-10.3v8h9.7q0.3 0 0.5 0.2 0.1 0.1 0.1 0.4 0 0.3-0.1 0.4-0.2 0.1-0.5 0.1h-9.7v8.4h10.3q0.3 0 0.4 0.2 0.2 0.1 0.2 0.3 0 0.3-0.2 0.5-0.1 0.1-0.4 0.1zm13.9 0.2q-0.3 0-0.4-0.1-0.2-0.2-0.2-0.4 0-0.2 0.1-0.4l8-18.6q0.2-0.3 0.4-0.5 0.2-0.1 0.4-0.1 0.2 0 0.4 0.1 0.2 0.2 0.3 0.5l8 18.6q0.1 0.2 0.1 0.4 0 0.2-0.1 0.4-0.1 0.1-0.4 0.1-0.3 0-0.5-0.2-0.1-0.2-0.2-0.4l-2.2-5h-10.9l-2.2 5q-0.1 0.3-0.3 0.4-0.2 0.2-0.3 0.2zm13.7-5.6h0.6l-0.7-0.3zm-10.9 0l0.1-0.3-0.8 0.3zm5.5-12.7l-5 11.6h10l-5-11.6zm-4.9 11.6h-0.7l0.6 0.2zm9.9 0l0.1 0.1 0.6-0.1zm13.6 6.7q-1.4 0-2.7-0.2-1.3-0.3-2.3-0.7-1.1-0.5-2-1.2-0.2-0.2-0.3-0.4 0-0.2 0-0.4 0.1-0.2 0.3-0.3 0.1-0.1 0.3-0.1 0.2 0 0.4 0.2 1.3 1 2.8 1.5 1.4 0.5 3.5 0.5 2.8 0 4.2-1.1 1.4-1.2 1.4-3 0-1.5-1.1-2.4-1-0.8-3.3-1.3l-2.8-0.6q-2.6-0.5-3.9-1.7-1.3-1.3-1.3-3.4 0-1.2 0.5-2.2 0.5-1.1 1.4-1.8 0.9-0.8 2.1-1.2 1.2-0.4 2.7-0.4 1.8 0 3.4 0.6 1.5 0.5 2.8 1.7 0.2 0.1 0.2 0.4 0.1 0.2 0 0.3 0 0.2-0.2 0.3-0.1 0.1-0.3 0.1-0.2 0-0.4-0.2-1.2-1-2.5-1.5-1.4-0.5-3-0.5-1.7 0-2.9 0.5-1.2 0.6-1.9 1.6-0.7 1-0.7 2.3 0 1.7 1 2.6 0.9 0.9 3.1 1.4l2.7 0.5q2.9 0.6 4.3 1.7 1.3 1.2 1.3 3.2 0 1.1-0.5 2.1-0.4 1-1.3 1.7-0.9 0.7-2.2 1-1.2 0.4-2.8 0.4zm18.6 0q-2.7 0-4.6-1.2-2-1.2-3-3.5-1-2.3-1-5.4 0-2.3 0.5-4.2 0.6-1.9 1.8-3.1 1.1-1.4 2.7-2.1 1.6-0.7 3.6-0.7 2.7 0 4.6 1.3 2 1.2 3 3.4 1 2.3 1 5.4 0 2.3-0.6 4.2-0.6 1.9-1.7 3.2-1.1 1.3-2.7 2-1.6 0.7-3.6 0.7zm0-1.1q2.3 0 4-1.1 1.6-1 2.5-3 0.9-2 0.9-4.9 0-4.2-2-6.6-1.9-2.3-5.4-2.3-2.3 0-4 1-1.6 1.1-2.5 3.1-0.9 2-0.9 4.8 0 4.2 1.9 6.6 2 2.4 5.5 2.4zm13.8 1.1q-0.3 0-0.4-0.2-0.2-0.2-0.2-0.5v-18.8q0-0.3 0.1-0.4 0.2-0.2 0.4-0.2 0.2 0 0.4 0.1 0.1 0.1 0.3 0.3l12.8 17.5v-17.3q0-0.3 0.2-0.4 0.1-0.2 0.4-0.2 0.2 0 0.4 0.2 0.1 0.1 0.1 0.4v18.8q0 0.3-0.1 0.5-0.1 0.2-0.4 0.2-0.2 0-0.3-0.1-0.2-0.1-0.3-0.3l-12.9-17.6v17.3q0 0.3-0.2 0.5-0.1 0.2-0.3 0.2zm13.4-2.2v0.8h0.6zm-12.9-15.7v-0.8h-0.6zm20.1 17.7q-0.3 0-0.5-0.1-0.2-0.2-0.2-0.6v-18.3q0-0.4 0.2-0.5 0.2-0.2 0.5-0.2h10.8q0.2 0 0.4 0.1 0.2 0.2 0.2 0.4 0 0.3-0.2 0.4-0.2 0.2-0.4 0.2h-10.3v8.1h9.7q0.3 0 0.4 0.1 0.2 0.1 0.2 0.4 0 0.3-0.2 0.4-0.1 0.2-0.4 0.2h-9.7v8.3h10.3q0.2 0 0.4 0.2 0.2 0.1 0.2 0.4 0 0.2-0.2 0.4-0.2 0.1-0.4 0.1zm15.9 0q-0.3 0-0.5-0.1-0.2-0.2-0.2-0.6v-18.3q0-0.4 0.2-0.5 0.2-0.2 0.5-0.2h5.4q4.6 0 7.1 2.5 2.6 2.5 2.6 7.3 0 2.5-0.7 4.3-0.6 1.8-1.9 3.1-1.2 1.2-3 1.9-1.8 0.6-4.1 0.6zm0.5-1.1h4.8q2.1 0 3.7-0.5 1.6-0.6 2.6-1.7 1.1-1.1 1.6-2.7 0.6-1.7 0.6-3.9 0-4.3-2.2-6.5-2.1-2.2-6.3-2.2h-4.8zm26.7 1.1q-0.4 0-0.5-0.2-0.2-0.2-0.2-0.5v-18.4q0-0.3 0.2-0.5 0.1-0.2 0.5-0.2h5.4q4.6 0 7.1 2.5 2.5 2.5 2.5 7.4 0 2.4-0.6 4.3-0.7 1.8-1.9 3-1.2 1.3-3 1.9-1.8 0.7-4.1 0.7zm0.4-1.1h4.8q2.1 0 3.7-0.6 1.6-0.5 2.7-1.6 1.1-1.1 1.6-2.8 0.5-1.6 0.5-3.8 0-4.4-2.1-6.6-2.1-2.2-6.4-2.2h-4.8zm17.9 1.3q-0.3 0-0.4-0.1-0.1-0.1-0.1-0.3 0-0.2 0.1-0.5l8-18.6q0.1-0.3 0.3-0.4 0.2-0.2 0.4-0.2 0.2 0 0.4 0.2 0.2 0.1 0.3 0.4l8.1 18.6q0.1 0.3 0.1 0.5 0 0.2-0.2 0.3-0.1 0.1-0.3 0.1-0.3 0-0.5-0.2-0.2-0.1-0.3-0.4l-2.2-5h-10.9l-2.1 5q-0.1 0.3-0.3 0.5-0.2 0.1-0.4 0.1zm13.7-5.6h0.7l-0.8-0.3zm-10.9 0l0.1-0.3-0.7 0.3zm5.4-12.7l-4.9 11.6h9.9l-4.9-11.6zm-5 11.6h-0.7l0.6 0.2zm10 0v0.1l0.6-0.1zm11.2 6.7q-0.3 0-0.5-0.2-0.1-0.2-0.1-0.4v-18.2h-7.1q-0.3 0-0.5-0.2-0.1-0.1-0.1-0.4 0-0.2 0.1-0.4 0.2-0.1 0.5-0.1h15.3q0.4 0 0.5 0.1 0.1 0.2 0.1 0.4 0 0.3-0.1 0.4-0.1 0.2-0.5 0.2h-7v18.2q0 0.2-0.2 0.4-0.1 0.2-0.4 0.2zm7.8 0q-0.3 0-0.4-0.1-0.2-0.1-0.2-0.3 0-0.2 0.2-0.5l8-18.6q0.1-0.3 0.3-0.4 0.2-0.2 0.4-0.2 0.2 0 0.4 0.2 0.2 0.1 0.3 0.4l8 18.6q0.1 0.3 0.1 0.5 0 0.2-0.1 0.3-0.1 0.1-0.4 0.1-0.2 0-0.4-0.2-0.2-0.2-0.3-0.4l-2.2-5h-10.9l-2.1 5q-0.1 0.3-0.3 0.5-0.2 0.1-0.4 0.1zm13.7-5.6h0.7l-0.8-0.3zm-10.9 0l0.1-0.3-0.8 0.3zm5.5-12.7l-5 11.6h10l-5-11.6zm-4.9 11.6h-0.7l0.6 0.2zm10 0v0.1l0.6-0.1zm20.6 6.7q-1.4 0-2.6-0.2-1.3-0.3-2.4-0.7-1.1-0.5-1.9-1.2-0.2-0.2-0.3-0.4-0.1-0.2 0-0.4 0.1-0.1 0.2-0.3 0.1-0.1 0.4-0.1 0.2 0 0.3 0.2 1.4 1 2.8 1.5 1.5 0.5 3.5 0.5 2.8 0 4.2-1.1 1.4-1.1 1.4-3 0-1.5-1-2.4-1-0.8-3.4-1.3l-2.8-0.6q-2.6-0.5-3.9-1.7-1.3-1.3-1.3-3.3 0-1.3 0.5-2.3 0.5-1.1 1.4-1.8 0.9-0.7 2.1-1.2 1.3-0.4 2.8-0.4 1.8 0 3.3 0.6 1.6 0.5 2.8 1.7 0.3 0.1 0.3 0.4 0.1 0.2 0 0.4-0.1 0.1-0.2 0.2-0.1 0.1-0.3 0.1-0.2 0-0.4-0.2-1.2-1-2.6-1.5-1.3-0.5-2.9-0.5-1.7 0-2.9 0.5-1.2 0.6-1.9 1.6-0.7 1-0.7 2.4 0 1.6 0.9 2.5 1 1 3.1 1.4l2.8 0.5q2.8 0.6 4.2 1.8 1.4 1.1 1.4 3.1 0 1.2-0.5 2.1-0.5 1-1.4 1.7-0.8 0.7-2.1 1.1-1.3 0.3-2.9 0.3zm18.8 0q-2.8 0-4.7-1.2-2-1.2-3-3.5-1.1-2.2-1.1-5.4 0-2.3 0.6-4.2 0.6-1.8 1.7-3.1 1.1-1.4 2.8-2.1 1.6-0.7 3.7-0.7 1.9 0 3.5 0.6 1.7 0.6 2.8 1.7 0.2 0.2 0.3 0.5 0 0.2 0 0.3-0.1 0.2-0.2 0.3-0.2 0.1-0.4 0.1-0.2-0.1-0.4-0.3-1.1-1-2.5-1.5-1.4-0.5-3.1-0.5-2.4 0-4.1 1-1.7 1.1-2.6 3.1-0.8 2-0.8 4.8 0 2.9 0.8 4.9 0.9 2 2.6 3 1.7 1.1 4.1 1.1 1.6 0 3.1-0.5 1.4-0.5 2.5-1.6 0.2-0.2 0.4-0.2 0.2 0 0.4 0.1 0.1 0.1 0.2 0.3 0 0.1 0 0.3 0 0.2-0.2 0.4-1.3 1.2-2.8 1.8-1.6 0.5-3.6 0.5zm11.3 0q-0.3 0-0.4-0.2-0.2-0.2-0.2-0.4v-18.9q0-0.3 0.2-0.4 0.1-0.2 0.4-0.2 0.3 0 0.4 0.2 0.2 0.1 0.2 0.4v18.9q0 0.2-0.2 0.4-0.1 0.2-0.4 0.2zm6.7-0.2q-0.4 0-0.6-0.2-0.1-0.1-0.1-0.5v-18.3q0-0.4 0.1-0.5 0.2-0.2 0.6-0.2h10.7q0.3 0 0.4 0.1 0.2 0.2 0.2 0.4 0 0.3-0.2 0.4-0.1 0.2-0.4 0.2h-10.3v8h9.7q0.3 0 0.5 0.2 0.1 0.1 0.1 0.4 0 0.3-0.1 0.4-0.2 0.1-0.5 0.1h-9.7v8.4h10.3q0.3 0 0.4 0.2 0.2 0.1 0.2 0.3 0 0.3-0.2 0.5-0.1 0.1-0.4 0.1zm15.8 0.2q-0.2 0-0.4-0.2-0.1-0.2-0.1-0.4v-18.9q0-0.3 0.1-0.4 0.1-0.2 0.4-0.2 0.2 0 0.3 0.1 0.2 0.1 0.3 0.3l12.9 17.5v-17.3q0-0.3 0.1-0.4 0.2-0.2 0.5-0.2 0.2 0 0.3 0.2 0.2 0.1 0.2 0.4v18.8q0 0.3-0.1 0.5-0.2 0.2-0.4 0.2-0.2 0-0.3-0.1-0.2-0.1-0.3-0.3l-12.9-17.5v17.3q0 0.2-0.2 0.4-0.1 0.2-0.4 0.2zm13.5-2.2v0.8h0.6zm-12.9-15.7v-0.8h-0.6zm24.9 17.9q-0.3 0-0.4-0.2-0.2-0.1-0.2-0.4v-18.2h-7.1q-0.3 0-0.4-0.2-0.2-0.1-0.2-0.4 0-0.2 0.2-0.4 0.1-0.1 0.4-0.1h15.4q0.3 0 0.4 0.1 0.2 0.2 0.2 0.4 0 0.3-0.2 0.5-0.1 0.1-0.4 0.1h-7.1v18.2q0 0.3-0.2 0.4-0.1 0.2-0.4 0.2zm11.5 0q-0.3 0-0.5-0.2-0.1-0.1-0.1-0.4v-18.9q0-0.3 0.1-0.4 0.2-0.2 0.5-0.2 0.3 0 0.4 0.2 0.2 0.1 0.2 0.4v18.9q0 0.3-0.2 0.4-0.1 0.2-0.4 0.2zm11.9 0.1q-1.4 0-2.6-0.3-1.3-0.2-2.4-0.7-1-0.5-1.9-1.2-0.2-0.2-0.3-0.3 0-0.2 0-0.4 0.1-0.2 0.2-0.3 0.2-0.1 0.4-0.1 0.2 0 0.4 0.1 1.3 1.1 2.7 1.5 1.5 0.5 3.5 0.5 2.8 0 4.2-1.1 1.5-1.1 1.5-3 0-1.5-1.1-2.3-1-0.9-3.4-1.4l-2.7-0.5q-2.7-0.6-4-1.8-1.2-1.2-1.2-3.3 0-1.3 0.4-2.3 0.5-1 1.4-1.8 0.9-0.7 2.2-1.1 1.2-0.4 2.7-0.4 1.8 0 3.3 0.5 1.6 0.6 2.9 1.7 0.2 0.2 0.2 0.4 0.1 0.2 0 0.4-0.1 0.2-0.2 0.3-0.1 0.1-0.3 0.1-0.2 0-0.4-0.2-1.2-1.1-2.6-1.6-1.3-0.5-2.9-0.5-1.7 0-2.9 0.6-1.2 0.5-1.9 1.5-0.7 1-0.7 2.4 0 1.6 0.9 2.5 1 1 3.1 1.4l2.8 0.5q2.8 0.6 4.2 1.8 1.4 1.1 1.4 3.1 0 1.2-0.5 2.1-0.5 1-1.4 1.7-0.8 0.7-2.1 1.1-1.3 0.4-2.9 0.4zm15.9-0.1q-0.3 0-0.4-0.2-0.2-0.1-0.2-0.4v-18.2h-7q-0.3 0-0.5-0.2-0.2-0.1-0.2-0.4 0-0.2 0.2-0.4 0.2-0.1 0.5-0.1h15.3q0.3 0 0.5 0.1 0.1 0.2 0.1 0.4 0 0.3-0.1 0.5-0.2 0.1-0.5 0.1h-7.1v18.2q0 0.3-0.1 0.4-0.2 0.2-0.5 0.2zm16.2 0.1q-1.4 0-2.7-0.3-1.2-0.2-2.3-0.7-1.1-0.5-1.9-1.2-0.2-0.2-0.3-0.3-0.1-0.2 0-0.4 0.1-0.2 0.2-0.3 0.1-0.1 0.3-0.1 0.3 0 0.4 0.1 1.4 1.1 2.8 1.5 1.5 0.5 3.5 0.5 2.8 0 4.2-1.1 1.4-1.1 1.4-3 0-1.5-1-2.3-1-0.9-3.4-1.4l-2.8-0.5q-2.6-0.6-3.9-1.8-1.3-1.2-1.3-3.3 0-1.3 0.5-2.3 0.5-1 1.4-1.8 0.9-0.7 2.1-1.1 1.3-0.4 2.8-0.4 1.8 0 3.3 0.5 1.6 0.6 2.8 1.7 0.2 0.2 0.3 0.4 0.1 0.2 0 0.4-0.1 0.2-0.2 0.3-0.1 0.1-0.3 0.1-0.2 0-0.4-0.2-1.2-1.1-2.6-1.6-1.3-0.5-2.9-0.5-1.7 0-2.9 0.6-1.3 0.5-1.9 1.5-0.7 1-0.7 2.4 0 1.6 0.9 2.5 1 1 3.1 1.4l2.8 0.5q2.8 0.6 4.2 1.8 1.4 1.1 1.4 3.1 0 1.2-0.5 2.1-0.5 1-1.4 1.7-0.8 0.7-2.1 1.1-1.3 0.4-2.9 0.4zm18.3-0.1q-0.3 0-0.4-0.2-0.2-0.1-0.2-0.4v-18.9q0-0.3 0.2-0.4 0.1-0.2 0.4-0.2 0.3 0 0.4 0.2 0.2 0.1 0.2 0.4v18.9q0 0.3-0.2 0.4-0.1 0.2-0.4 0.2zm6.5 0q-0.2 0-0.4-0.2-0.1-0.1-0.1-0.4v-18.8q0-0.3 0.1-0.5 0.1-0.2 0.4-0.2 0.2 0 0.3 0.1 0.2 0.1 0.3 0.3l12.9 17.5v-17.3q0-0.3 0.1-0.4 0.2-0.2 0.5-0.2 0.2 0 0.3 0.2 0.2 0.1 0.2 0.4v18.9q0 0.3-0.1 0.4-0.2 0.2-0.4 0.2-0.2 0-0.3-0.1-0.2-0.1-0.3-0.3l-12.9-17.5v17.3q0 0.3-0.2 0.4-0.1 0.2-0.4 0.2zm13.5-2.2v0.9h0.6zm-12.9-15.8v-0.8h-0.6zm27 17.9q-0.4 0-0.6-0.2-0.1-0.1-0.1-0.5v-18.5q0-0.3 0.1-0.5 0.2-0.2 0.6-0.2h10.4q0.3 0 0.5 0.2 0.1 0.1 0.1 0.4 0 0.2-0.1 0.4-0.2 0.1-0.5 0.1h-10v8.1h9.5q0.3 0 0.4 0.1 0.2 0.2 0.2 0.4 0 0.3-0.2 0.4-0.1 0.2-0.4 0.2h-9.5v8.9q0 0.7-0.4 0.7zm21.5 0.1q-2.6 0-4.6-1.2-1.9-1.3-3-3.5-1-2.3-1-5.4 0-2.4 0.6-4.2 0.6-1.9 1.7-3.2 1.1-1.3 2.7-2 1.6-0.7 3.6-0.7 2.7 0 4.6 1.2 2 1.2 3 3.5 1.1 2.2 1.1 5.4 0 2.3-0.6 4.2-0.6 1.8-1.7 3.2-1.2 1.3-2.8 2-1.6 0.7-3.6 0.7zm0-1.2q2.4 0 4-1 1.7-1.1 2.5-3.1 0.9-2 0.9-4.8 0-4.3-1.9-6.6-1.9-2.4-5.5-2.4-2.3 0-4 1.1-1.6 1-2.5 3-0.8 2-0.8 4.9 0 4.2 1.9 6.6 1.9 2.3 5.4 2.3zm13.8 1.1q-0.2 0-0.4-0.1-0.2-0.2-0.2-0.5v-18.7q0-0.3 0.2-0.4 0.2-0.2 0.4-0.2h6.6q3.1 0 4.7 1.4 1.7 1.5 1.7 4.1 0 1.7-0.8 3-0.7 1.2-2.2 1.8-0.7 0.4-1.7 0.5 0.3 0.1 0.6 0.4 0.8 0.5 1.5 1.8l3.2 6q0.2 0.2 0.1 0.4 0 0.2-0.1 0.4-0.1 0.1-0.3 0.1-0.3 0-0.4-0.1-0.2-0.1-0.3-0.3l-3.3-6.1q-0.7-1.4-1.7-1.9-0.9-0.5-2.6-0.5h-4.4v8.3q0 0.3-0.1 0.5-0.2 0.1-0.5 0.1zm8.3-9.1q-0.5-0.2-1.2-0.2h-0.2l-0.3 0.3q0.9 0 1.7-0.1zm-7.7-0.9h5.9q2.6 0 3.9-1.1 1.4-1.1 1.4-3.3 0-2.1-1.4-3.3-1.3-1.1-3.9-1.1h-5.9zm22.1 10q-0.3 0-0.4-0.2-0.2-0.1-0.2-0.4v-18.2h-7.1q-0.2 0-0.4-0.2-0.2-0.1-0.2-0.4 0-0.2 0.2-0.3 0.2-0.2 0.4-0.2h15.4q0.3 0 0.4 0.2 0.2 0.1 0.2 0.3 0 0.3-0.2 0.5-0.1 0.1-0.4 0.1h-7.1v18.2q0 0.3-0.1 0.4-0.2 0.2-0.5 0.2zm18.3 0.1q-1.9 0-3.3-0.5-1.4-0.5-2.3-1.5-1-1-1.5-2.5-0.4-1.4-0.4-3.3v-11.8q0-0.2 0.1-0.4 0.2-0.2 0.5-0.2 0.2 0 0.4 0.2 0.1 0.2 0.1 0.4v11.6q0 3.4 1.6 5.1 1.6 1.7 4.8 1.7 3.2 0 4.8-1.7 1.5-1.7 1.5-5.1v-11.6q0-0.2 0.2-0.4 0.2-0.2 0.4-0.2 0.3 0 0.5 0.2 0.1 0.2 0.1 0.4v11.8q0 2.5-0.8 4.2-0.9 1.8-2.6 2.7-1.6 0.9-4.1 0.9zm13.3-0.1q-0.2 0-0.4-0.2-0.1-0.1-0.1-0.4v-18.8q0-0.3 0.1-0.5 0.1-0.2 0.4-0.2 0.2 0 0.3 0.1 0.2 0.1 0.3 0.3l12.9 17.5v-17.3q0-0.2 0.1-0.4 0.2-0.2 0.5-0.2 0.2 0 0.3 0.2 0.2 0.2 0.2 0.4v18.9q0 0.3-0.1 0.4-0.2 0.2-0.4 0.2-0.2 0-0.3-0.1-0.2-0.1-0.3-0.3l-12.9-17.5v17.3q0 0.3-0.2 0.4-0.1 0.2-0.4 0.2zm13.5-2.2v0.9h0.6zm-12.9-15.8v-0.8h-0.6zm20.1 17.8q-0.4 0-0.6-0.2-0.1-0.2-0.1-0.5v-18.4q0-0.3 0.1-0.5 0.2-0.2 0.6-0.2h10.7q0.3 0 0.5 0.2 0.1 0.1 0.1 0.4 0 0.2-0.1 0.4-0.2 0.1-0.5 0.1h-10.3v8.1h9.8q0.2 0 0.4 0.1 0.2 0.2 0.2 0.4 0 0.3-0.2 0.5-0.2 0.1-0.4 0.1h-9.8v8.4h10.3q0.3 0 0.5 0.1 0.1 0.2 0.1 0.4 0 0.3-0.1 0.4-0.2 0.2-0.5 0.2zm28.5 0.2q-1.7 0-3.3-0.6-1.6-0.5-2.9-1.7-0.2-0.1-0.2-0.3 0-0.2 0-0.4 0.1-0.1 0.2-0.2 0.1-0.1 0.3-0.1 0.2 0 0.4 0.2 1.3 1 2.7 1.5 1.3 0.4 2.8 0.4 1.6 0 2.7-0.6 1.1-0.6 1.7-1.7 0.6-1.1 0.6-2.6 0-2.2-1.3-3.7-1.2-1.5-3.5-1.5-1.5 0-2.6 0.6-1.2 0.6-2.1 1.8-0.1 0.2-0.2 0.4-0.2 0.1-0.4 0.1-0.3 0-0.5-0.2-0.1-0.2-0.1-0.5v-10.3q0-0.3 0.1-0.4 0.2-0.2 0.5-0.2h9.7q0.3 0 0.5 0.2 0.2 0.1 0.2 0.4 0 0.2-0.2 0.4-0.2 0.1-0.5 0.1h-9.2v8.7q0.7-0.9 1.8-1.5 1.3-0.7 3.1-0.7 1.8 0 3.1 0.8 1.4 0.8 2.1 2.2 0.7 1.4 0.7 3.2 0 1.8-0.7 3.2-0.8 1.4-2.2 2.2-1.4 0.8-3.3 0.8zm-4.6-10.2q-0.2 0.2-0.4 0.6h0.4zm20.8 10.2q-3.3 0-5-2.6-1.7-2.6-1.7-7.5 0-3.3 0.8-5.6 0.7-2.2 2.2-3.4 1.5-1.1 3.7-1.1 3.3 0 5 2.5 1.6 2.6 1.6 7.6 0 3.3-0.7 5.5-0.8 2.3-2.3 3.4-1.4 1.2-3.6 1.2zm0-1.2q2.7 0 4-2.2 1.4-2.2 1.4-6.7 0-4.6-1.3-6.8-1.3-2.2-4.1-2.2-2.8 0-4.1 2.2-1.3 2.2-1.3 6.8 0 4.5 1.3 6.7 1.3 2.2 4.1 2.2zm16.8 1.2q-3.3 0-5-2.6-1.7-2.6-1.7-7.5 0-3.3 0.8-5.6 0.7-2.2 2.2-3.4 1.5-1.1 3.7-1.1 3.3 0 5 2.5 1.6 2.6 1.6 7.6 0 3.3-0.7 5.5-0.8 2.3-2.3 3.4-1.4 1.2-3.6 1.2zm0-1.2q2.7 0 4-2.2 1.4-2.2 1.4-6.7 0-4.6-1.3-6.8-1.3-2.2-4.1-2.2-2.8 0-4.1 2.2-1.3 2.2-1.3 6.8 0 4.5 1.3 6.7 1.3 2.2 4.1 2.2z"/>
			<path id="Layer" fill-rule="evenodd" class="s3" d="m800.3 37.7q-2.7 0-4.7-1.2-2-1.2-3-3.5-1.1-2.2-1.1-5.4 0-2.3 0.6-4.2 0.6-1.8 1.7-3.1 1.2-1.4 2.8-2.1 1.7-0.7 3.7-0.7 1.9 0 3.6 0.6 1.6 0.6 2.8 1.7 0.2 0.2 0.2 0.5 0.1 0.2 0 0.3-0.1 0.2-0.2 0.3-0.1 0.1-0.3 0.1-0.2-0.1-0.5-0.3-1.1-1-2.5-1.5-1.4-0.5-3.1-0.5-2.4 0-4.1 1-1.7 1.1-2.5 3.1-0.9 2-0.9 4.8 0 2.9 0.9 4.9 0.8 2 2.5 3 1.7 1.1 4.1 1.1 1.7 0 3.1-0.5 1.4-0.5 2.5-1.6 0.3-0.2 0.5-0.2 0.2 0 0.3 0.1 0.1 0.1 0.2 0.3 0.1 0.1 0 0.3 0 0.2-0.2 0.4-1.2 1.2-2.8 1.8-1.6 0.5-3.6 0.5zm18 0q-2.7 0-4.6-1.2-1.9-1.2-3-3.5-1-2.3-1-5.4 0-2.3 0.5-4.2 0.6-1.8 1.8-3.1 1.1-1.4 2.7-2.1 1.6-0.7 3.6-0.7 2.7 0 4.6 1.3 2 1.2 3 3.4 1 2.3 1 5.4 0 2.3-0.6 4.2-0.6 1.9-1.7 3.2-1.1 1.3-2.7 2-1.6 0.7-3.6 0.7zm0-1.1q2.3 0 4-1.1 1.6-1 2.5-3 0.9-2 0.9-4.9 0-4.2-1.9-6.6-1.9-2.3-5.5-2.3-2.3 0-4 1-1.6 1.1-2.5 3.1-0.9 2-0.9 4.8 0 4.3 2 6.6 1.9 2.4 5.4 2.4zm13.8 1.1q-0.2 0-0.4-0.2-0.1-0.2-0.1-0.4v-18.9q0-0.3 0.1-0.4 0.1-0.2 0.4-0.2 0.2 0 0.4 0.1 0.1 0.1 0.2 0.4l8 15.1 7.9-15.1q0.1-0.3 0.2-0.4 0.1-0.1 0.4-0.1 0.2 0 0.4 0.2 0.1 0.1 0.1 0.4v18.9q0 0.2-0.1 0.4-0.2 0.2-0.4 0.2-0.3 0-0.4-0.2-0.2-0.2-0.2-0.4v-16.9l-7.3 14q-0.1 0.2-0.2 0.3-0.2 0.1-0.4 0.1-0.3 0-0.4-0.1-0.1-0.1-0.2-0.3l-7.4-14v16.9q0 0.2-0.2 0.4-0.1 0.2-0.4 0.2zm8.6-4.5l-0.4 0.7h0.8zm7.9-13l0.7-1.3h-0.7zm-15.9 0.1v-1.4h-0.8zm23.1 17.5q-0.3 0-0.4-0.2-0.2-0.1-0.2-0.4v-18.7q0-0.3 0.2-0.4 0.2-0.2 0.4-0.2h6.6q3.1 0 4.7 1.5 1.7 1.5 1.7 4.2 0 2.8-1.7 4.2-1.6 1.5-4.7 1.5h-6v7.9q0 0.3-0.1 0.4-0.2 0.2-0.5 0.2zm0.6-9.6h5.9q2.6 0 3.9-1.1 1.4-1.2 1.4-3.5 0-2.3-1.4-3.4-1.3-1.2-3.9-1.2h-5.9zm13.2 9.6q-0.3 0-0.5-0.1-0.1-0.2-0.1-0.4 0-0.2 0.1-0.4l8-18.6q0.2-0.3 0.4-0.5 0.2-0.1 0.4-0.1 0.2 0 0.4 0.1 0.2 0.2 0.3 0.5l8 18.6q0.1 0.2 0.1 0.4 0 0.2-0.1 0.4-0.1 0.1-0.4 0.1-0.3 0-0.5-0.2-0.2-0.2-0.3-0.4l-2.1-5h-10.9l-2.2 5q-0.1 0.3-0.3 0.4-0.2 0.2-0.3 0.2zm13.7-5.6h0.6l-0.7-0.3zm-10.9 0l0.1-0.3-0.8 0.3zm5.4-12.7l-4.9 11.6h9.9l-4.9-11.6zm-5 11.6h-0.6l0.6 0.2zm9.9 0l0.1 0.1 0.5-0.1zm8.4 6.7q-0.3 0-0.5-0.2-0.1-0.2-0.1-0.5v-18.8q0-0.3 0.1-0.4 0.2-0.2 0.4-0.2 0.2 0 0.4 0.1 0.1 0.1 0.2 0.3l12.9 17.5v-17.3q0-0.3 0.2-0.4 0.1-0.2 0.4-0.2 0.2 0 0.4 0.2 0.1 0.1 0.1 0.4v18.8q0 0.3-0.1 0.5-0.1 0.2-0.4 0.2-0.2 0-0.3-0.1-0.2-0.1-0.3-0.3l-12.9-17.6v17.3q0 0.3-0.2 0.5-0.1 0.2-0.3 0.2zm13.4-2.2v0.8h0.6zm-12.9-15.7v-0.8h-0.6zm20 17.9q-0.3 0-0.4-0.2-0.2-0.1-0.2-0.4v-18.9q0-0.3 0.2-0.4 0.1-0.2 0.4-0.2 0.3 0 0.4 0.2 0.2 0.1 0.2 0.4v18.9q0 0.3-0.2 0.4-0.1 0.2-0.4 0.2zm6.7-0.2q-0.4 0-0.6-0.1-0.1-0.2-0.1-0.6v-18.3q0-0.4 0.1-0.5 0.2-0.2 0.6-0.2h10.7q0.3 0 0.4 0.1 0.2 0.2 0.2 0.4 0 0.3-0.2 0.4-0.1 0.2-0.4 0.2h-10.3v8.1h9.7q0.3 0 0.5 0.1 0.1 0.1 0.1 0.4 0 0.3-0.1 0.4-0.2 0.2-0.5 0.2h-9.7v8.3h10.3q0.3 0 0.4 0.2 0.2 0.1 0.2 0.4 0 0.2-0.2 0.4-0.1 0.1-0.4 0.1zm21 0.2q-1.4 0-2.7-0.2-1.2-0.3-2.3-0.7-1.1-0.5-2-1.2-0.2-0.2-0.2-0.4-0.1-0.2 0-0.3 0-0.2 0.2-0.3 0.1-0.2 0.3-0.2 0.2 0 0.4 0.2 1.3 1 2.8 1.5 1.5 0.5 3.5 0.5 2.8 0 4.2-1.1 1.4-1.1 1.4-3 0-1.5-1-2.4-1.1-0.8-3.4-1.3l-2.8-0.5q-2.6-0.6-3.9-1.8-1.3-1.2-1.3-3.3 0-1.3 0.5-2.3 0.5-1 1.4-1.8 0.9-0.7 2.1-1.1 1.2-0.4 2.7-0.4 1.9 0 3.4 0.5 1.5 0.5 2.8 1.7 0.2 0.2 0.3 0.4 0 0.2-0.1 0.4 0 0.2-0.1 0.3-0.2 0-0.4 0-0.2 0-0.4-0.1-1.2-1.1-2.5-1.6-1.4-0.5-3-0.5-1.6 0-2.9 0.6-1.2 0.5-1.9 1.5-0.7 1-0.7 2.4 0 1.6 1 2.5 0.9 1 3.1 1.4l2.7 0.5q2.9 0.6 4.3 1.8 1.3 1.1 1.3 3.1 0 1.2-0.4 2.1-0.5 1-1.4 1.7-0.9 0.7-2.2 1.1-1.2 0.3-2.8 0.3zm10.8-0.1q-0.5 0-0.8-0.3-0.3-0.3-0.3-0.8 0-0.4 0.3-0.7 0.3-0.3 0.8-0.3 0.5 0 0.7 0.3 0.3 0.3 0.3 0.7 0 0.5-0.3 0.8-0.2 0.3-0.7 0.3z"/>
			<path id="Layer" class="s1" d="m29.7 81.3q-1 0-1.6-0.4-0.6-0.5-0.9-1.5l-7.5-21.3q-0.4-1.1 0.1-1.9 0.6-0.8 1.9-0.8 1 0 1.5 0.4 0.6 0.5 0.9 1.4l6.5 19.3h-1.5l6.8-19.2q0.3-1 0.9-1.5 0.5-0.4 1.4-0.4 0.9 0 1.4 0.4 0.5 0.5 0.8 1.5l6.6 19.2h-1.3l6.6-19.3q0.3-0.9 0.9-1.4 0.5-0.4 1.4-0.4 1.2 0 1.7 0.8 0.6 0.8 0.2 1.9l-7.6 21.3q-0.4 1-0.9 1.5-0.6 0.4-1.6 0.4-1 0-1.5-0.4-0.6-0.5-1-1.5l-6.2-17.9h0.8l-6.4 17.9q-0.3 1-0.9 1.5-0.5 0.4-1.5 0.4zm33.6-0.3q-1.2 0-1.8-0.6-0.7-0.6-0.7-1.8v-20.5q0-1.2 0.7-1.8 0.6-0.6 1.8-0.6h12.8q0.9 0 1.4 0.4 0.5 0.5 0.5 1.4 0 0.8-0.5 1.3-0.5 0.5-1.4 0.5h-10.8v7h10q1 0 1.5 0.5 0.4 0.5 0.4 1.3 0 0.9-0.4 1.4-0.5 0.5-1.5 0.5h-10v7.4h10.8q0.9 0 1.4 0.4 0.5 0.5 0.5 1.4 0 0.9-0.5 1.4-0.5 0.4-1.4 0.4z"/>
			<path id="Layer" fill-rule="evenodd" class="s2" d="m94.5 81q-1.2 0-1.8-0.6-0.6-0.6-0.6-1.8v-20.5q0-1.2 0.6-1.8 0.6-0.6 1.8-0.6h8.7q2.6 0 4.5 0.8 1.9 0.7 2.9 2.2 1 1.5 1 3.5 0 2.3-1.4 3.9-1 1.2-2.6 1.8 2 0.5 3.1 1.8 1.5 1.6 1.5 4.2 0 3.4-2.3 5.3-2.3 1.8-6.3 1.8zm13.1-13.1q-0.5-0.1-1.1-0.2v0.6q0.6-0.2 1.1-0.4zm-11.1 9.6h6.4q2.5 0 3.6-0.9 1.2-1 1.2-2.9 0-1.9-1.2-2.9-1.1-0.9-3.6-0.9h-6.4zm0-11.1h5.8q2.4 0 3.6-0.9 1.1-1 1.1-2.8 0-1.8-1.1-2.7-1.2-0.9-3.6-0.9h-5.8zm22.7 14.6q-1.2 0-1.8-0.6-0.6-0.7-0.6-1.8v-20.5q0-1.2 0.6-1.8 0.6-0.7 1.8-0.7h12.9q0.9 0 1.4 0.5 0.5 0.5 0.5 1.3 0 0.9-0.5 1.4-0.5 0.5-1.4 0.5h-10.9v7h10.1q0.9 0 1.4 0.5 0.5 0.4 0.5 1.3 0 0.9-0.5 1.4-0.5 0.5-1.4 0.5h-10.1v7.3h10.9q0.9 0 1.4 0.5 0.5 0.5 0.5 1.4 0 0.9-0.5 1.3-0.5 0.5-1.4 0.5zm21.4 0q-1.1 0-1.8-0.6-0.6-0.7-0.6-1.8v-20.7q0-1.2 0.6-1.8 0.6-0.6 1.7-0.6 1.2 0 1.7 0.6 0.6 0.6 0.6 1.8v19.2h10.5q1 0 1.5 0.5 0.5 0.5 0.5 1.4 0 1-0.5 1.5-0.5 0.5-1.5 0.5zm20.2 0.3q-1.1 0-1.7-0.6-0.6-0.7-0.6-1.8v-21.2q0-1.1 0.6-1.7 0.6-0.7 1.7-0.7 1.1 0 1.7 0.7 0.6 0.6 0.6 1.7v21.2q0 1.1-0.6 1.8-0.6 0.6-1.7 0.6zm10.3-0.3q-1.2 0-1.9-0.6-0.6-0.7-0.6-1.8v-20.5q0-1.2 0.6-1.8 0.7-0.7 1.9-0.7h12.8q0.9 0 1.4 0.5 0.5 0.5 0.5 1.3 0 0.9-0.5 1.4-0.5 0.5-1.4 0.5h-10.8v7h10q1 0 1.4 0.5 0.5 0.4 0.5 1.3 0 0.9-0.5 1.4-0.4 0.5-1.4 0.5h-10v7.3h10.8q0.9 0 1.4 0.5 0.5 0.5 0.5 1.4 0 0.9-0.5 1.3-0.5 0.5-1.4 0.5zm29.1 0.3q-1 0-1.7-0.4-0.6-0.5-1-1.4l-9.4-21.1q-0.4-0.9-0.2-1.6 0.2-0.7 0.8-1.1 0.5-0.4 1.3-0.4 1.1 0 1.6 0.5 0.5 0.4 0.9 1.3l7.7 18 7.8-18q0.4-0.9 0.9-1.3 0.5-0.5 1.5-0.5 0.8 0 1.3 0.4 0.6 0.4 0.7 1.1 0.1 0.7-0.3 1.6l-9.4 21.1q-0.4 0.9-0.9 1.4-0.6 0.4-1.6 0.4zm0-6.2l-0.7 1.8h1.5zm18 5.9q-1.2 0-1.9-0.6-0.6-0.7-0.6-1.8v-20.5q0-1.2 0.6-1.8 0.7-0.7 1.9-0.7h12.8q0.9 0 1.4 0.5 0.5 0.5 0.5 1.3 0 0.9-0.5 1.4-0.5 0.5-1.4 0.5h-10.9v7h10.1q1 0 1.4 0.5 0.5 0.4 0.5 1.3 0 0.9-0.5 1.4-0.4 0.5-1.4 0.5h-10.1v7.3h10.9q0.9 0 1.4 0.5 0.5 0.5 0.5 1.4 0 0.9-0.5 1.3-0.5 0.5-1.4 0.5z"/>
			<path id="Layer" fill-rule="evenodd" class="s3" d="m247.2 81.2q-0.3 0-0.5-0.2-0.1-0.1-0.1-0.4v-18.9q0-0.3 0.1-0.4 0.2-0.2 0.5-0.2 0.3 0 0.4 0.2 0.2 0.1 0.2 0.4v18.9q0 0.3-0.2 0.4-0.1 0.2-0.4 0.2zm6.5 0q-0.3 0-0.4-0.2-0.2-0.1-0.2-0.4v-18.8q0-0.3 0.2-0.5 0.1-0.2 0.3-0.2 0.3 0 0.4 0.1 0.2 0.1 0.3 0.3l12.9 17.5v-17.3q0-0.3 0.1-0.4 0.2-0.2 0.4-0.2 0.3 0 0.4 0.2 0.2 0.1 0.2 0.4v18.9q0 0.3-0.2 0.4-0.1 0.2-0.3 0.2-0.2 0-0.4-0.1-0.1-0.1-0.3-0.3l-12.9-17.5v17.3q0 0.3-0.1 0.4-0.2 0.2-0.4 0.2zm13.5-2.2v0.9h0.6zm-13-15.8v-0.8h-0.6zm31.9 17.9q-0.3 0-0.5-0.1-0.1-0.2-0.1-0.5v-18.2h-7.1q-0.3 0-0.5-0.1-0.1-0.2-0.1-0.4 0-0.3 0.1-0.4 0.2-0.2 0.5-0.2h15.3q0.3 0 0.5 0.2 0.1 0.1 0.1 0.4 0 0.2-0.1 0.4-0.2 0.1-0.5 0.1h-7.1v18.2q0 0.3-0.1 0.5-0.1 0.1-0.4 0.1zm11.4 0q-0.2 0-0.4-0.1-0.2-0.2-0.2-0.5v-18.8q0-0.3 0.2-0.5 0.2-0.2 0.4-0.2 0.3 0 0.5 0.2 0.1 0.2 0.1 0.5v8.7h13.3v-8.7q0-0.3 0.2-0.5 0.1-0.2 0.4-0.2 0.3 0 0.4 0.2 0.2 0.2 0.2 0.5v18.8q0 0.3-0.2 0.5-0.1 0.1-0.4 0.1-0.3 0-0.4-0.1-0.2-0.2-0.2-0.5v-9h-13.3v9q0 0.3-0.1 0.5-0.2 0.1-0.5 0.1zm21.2-0.1q-0.4 0-0.6-0.2-0.1-0.2-0.1-0.5v-18.4q0-0.3 0.1-0.5 0.2-0.2 0.6-0.2h10.7q0.3 0 0.5 0.2 0.1 0.1 0.1 0.4 0 0.2-0.1 0.4-0.2 0.1-0.5 0.1h-10.3v8.1h9.8q0.2 0 0.4 0.1 0.2 0.2 0.2 0.4 0 0.3-0.2 0.4-0.2 0.2-0.4 0.2h-9.8v8.4h10.3q0.3 0 0.5 0.1 0.1 0.1 0.1 0.4 0 0.3-0.1 0.4-0.2 0.2-0.5 0.2zm22.8 0.1q-0.3 0-0.5-0.1-0.1-0.2-0.1-0.5v-18.7q0-0.3 0.1-0.4 0.2-0.2 0.5-0.2h6.5q3.1 0 4.8 1.5 1.6 1.5 1.6 4.2 0 2.8-1.6 4.3-1.7 1.4-4.8 1.4h-6v7.9q0 0.3-0.1 0.5-0.1 0.1-0.4 0.1zm0.5-9.6h6q2.6 0 3.9-1.1 1.3-1.2 1.3-3.5 0-2.2-1.3-3.4-1.3-1.2-3.9-1.2h-6zm23.7 9.6q-2.7 0-4.6-1.2-2-1.2-3-3.5-1.1-2.3-1.1-5.4 0-2.3 0.6-4.2 0.6-1.8 1.7-3.1 1.1-1.3 2.7-2 1.6-0.7 3.7-0.7 2.6 0 4.6 1.2 1.9 1.2 3 3.5 1 2.2 1 5.3 0 2.4-0.6 4.2-0.6 1.9-1.7 3.2-1.1 1.3-2.7 2.1-1.6 0.6-3.6 0.6zm0-1.1q2.3 0 4-1 1.6-1.1 2.5-3.1 0.8-2 0.8-4.9 0-4.2-1.9-6.5-1.9-2.4-5.4-2.4-2.4 0-4 1.1-1.7 1-2.5 3-0.9 2-0.9 4.8 0 4.3 1.9 6.6 2 2.4 5.5 2.4zm18.5 1.1q-0.2 0-0.4-0.2-0.2-0.2-0.3-0.5l-6.5-18.7q-0.1-0.3 0.1-0.5 0.1-0.2 0.4-0.2 0.3 0 0.4 0.1 0.2 0.2 0.3 0.5l6 17.6 6.1-17.5q0.1-0.4 0.3-0.5 0.1-0.2 0.4-0.2 0.3 0 0.4 0.2 0.2 0.1 0.3 0.5l6.1 17.6 6.1-17.7q0.1-0.3 0.2-0.4 0.2-0.2 0.5-0.2 0.3 0 0.4 0.2 0.2 0.2 0 0.5l-6.4 18.7q-0.1 0.3-0.3 0.5-0.2 0.2-0.5 0.2-0.3 0-0.5-0.2-0.1-0.2-0.3-0.5l-6-17.4-6 17.4q-0.1 0.3-0.3 0.5-0.1 0.2-0.5 0.2zm0-1.9l-0.4 1.2h0.9zm13.5 0.1l-0.4 1.1h0.8zm-6.8-16.3l0.3-0.8h-0.5zm18.6 18q-0.3 0-0.5-0.2-0.2-0.2-0.2-0.5v-18.4q0-0.3 0.2-0.5 0.2-0.2 0.5-0.2h10.8q0.3 0 0.4 0.2 0.2 0.1 0.2 0.4 0 0.2-0.2 0.4-0.1 0.1-0.4 0.1h-10.3v8.1h9.7q0.3 0 0.5 0.1 0.1 0.2 0.1 0.4 0 0.3-0.1 0.4-0.2 0.2-0.5 0.2h-9.7v8.4h10.3q0.3 0 0.4 0.1 0.2 0.1 0.2 0.4 0 0.3-0.2 0.4-0.1 0.2-0.4 0.2zm15.8 0.1q-0.3 0-0.4-0.1-0.2-0.2-0.2-0.5v-18.7q0-0.3 0.2-0.4 0.2-0.2 0.4-0.2h6.6q3.1 0 4.7 1.4 1.7 1.5 1.7 4.1 0 1.7-0.8 3-0.7 1.2-2.2 1.8-0.8 0.4-1.7 0.5 0.3 0.1 0.6 0.4 0.8 0.5 1.5 1.8l3.2 6q0.1 0.2 0.1 0.4 0 0.2-0.1 0.4-0.1 0.1-0.3 0.1-0.3 0-0.4-0.1-0.2-0.1-0.3-0.3l-3.3-6.1q-0.7-1.4-1.7-1.9-0.9-0.5-2.6-0.5h-4.4v8.3q0 0.3-0.1 0.5-0.2 0.1-0.5 0.1zm8.3-9.1q-0.5-0.2-1.2-0.2h-0.2l-0.3 0.3q0.9 0 1.7-0.1zm-7.7-0.9h5.9q2.6 0 3.9-1.1 1.4-1.1 1.4-3.3 0-2.1-1.4-3.3-1.3-1.1-3.9-1.1h-5.9zm31.8 10.1q-2.6 0-4.5-1.3-2-1.2-3-3.5-1.1-2.2-1.1-5.3 0-2.4 0.6-4.2 0.6-1.9 1.7-3.2 1.1-1.3 2.7-2 1.6-0.7 3.6-0.7 2.7 0 4.7 1.2 1.9 1.2 3 3.5 1 2.2 1 5.3 0 2.4-0.6 4.3-0.6 1.8-1.7 3.2-1.1 1.3-2.7 2-1.6 0.7-3.7 0.7zm0-1.2q2.4 0 4-1 1.7-1.1 2.6-3.1 0.8-2 0.8-4.8 0-4.3-1.9-6.6-1.9-2.4-5.5-2.4-2.3 0-3.9 1.1-1.7 1-2.6 3-0.8 2-0.8 4.9 0 4.2 1.9 6.6 1.9 2.3 5.4 2.3zm14 1.1q-0.4 0-0.6-0.2-0.1-0.2-0.1-0.5v-18.5q0-0.3 0.1-0.5 0.2-0.2 0.6-0.2h10.4q0.3 0 0.5 0.2 0.1 0.1 0.1 0.3 0 0.3-0.1 0.5-0.2 0.1-0.5 0.1h-10v8.1h9.5q0.3 0 0.4 0.1 0.2 0.2 0.2 0.4 0 0.3-0.2 0.4-0.1 0.2-0.4 0.2h-9.5v8.9q0 0.7-0.4 0.7zm22.8-0.2q-0.3 0-0.5-0.1-0.1-0.2-0.1-0.4 0-0.3 0.1-0.4 0.2-0.1 0.5-0.1h4.1v-17.3l-3.3 2.4q-0.2 0.1-0.4 0.1-0.2 0-0.3-0.1-0.1-0.1-0.2-0.3-0.1-0.2 0-0.3 0.1-0.2 0.3-0.4l3.8-2.7q0.2-0.2 0.4-0.2 0.1-0.1 0.3-0.1 0.2 0 0.4 0.2 0.1 0.2 0.1 0.4v18.3h3.9q0.3 0 0.4 0.1 0.2 0.1 0.2 0.4 0 0.3-0.2 0.4-0.1 0.1-0.4 0.1zm4.1-18.3l0.7-0.5h-0.7zm11.3 18.4q-0.4 0-0.7-0.3-0.3-0.3-0.3-0.8 0-0.4 0.3-0.7 0.3-0.3 0.7-0.3 0.5 0 0.8 0.3 0.2 0.3 0.2 0.7 0 0.5-0.2 0.8-0.3 0.3-0.8 0.3zm0-11.6q-0.4 0-0.7-0.3-0.3-0.3-0.3-0.8 0-0.4 0.3-0.7 0.3-0.3 0.7-0.3 0.5 0 0.8 0.3 0.2 0.3 0.2 0.7 0 0.5-0.2 0.8-0.3 0.3-0.8 0.3zm7.3 11.5q-0.3 0-0.5-0.1-0.1-0.2-0.1-0.4 0-0.3 0.1-0.4 0.2-0.2 0.5-0.2h4.1v-17.2l-3.3 2.3q-0.2 0.2-0.4 0.2-0.2 0-0.3-0.1-0.2-0.2-0.2-0.3-0.1-0.2 0-0.4 0-0.2 0.3-0.3l3.8-2.8q0.2-0.1 0.3-0.1 0.2-0.1 0.4-0.1 0.2 0 0.4 0.2 0.1 0.1 0.1 0.4v18.2h3.8q0.3 0 0.5 0.2 0.2 0.1 0.2 0.4 0 0.2-0.2 0.4-0.2 0.1-0.5 0.1zm4.1-18.3l0.8-0.5h-0.8zm18.6 18.5q-0.2 0-0.4-0.2-0.1-0.2-0.1-0.5v-18.8q0-0.3 0.1-0.5 0.2-0.1 0.4-0.1 0.2 0 0.4 0.1 0.1 0.1 0.2 0.3l8 15.2 7.9-15.2q0.1-0.2 0.2-0.3 0.1-0.1 0.4-0.1 0.2 0 0.4 0.1 0.1 0.2 0.1 0.5v18.8q0 0.3-0.1 0.5-0.2 0.2-0.4 0.2-0.3 0-0.4-0.2-0.2-0.2-0.2-0.5v-16.9l-7.3 14q-0.1 0.2-0.2 0.4-0.2 0.1-0.4 0.1-0.3 0-0.4-0.1-0.1-0.2-0.2-0.4l-7.4-13.9v16.8q0 0.3-0.2 0.5-0.1 0.2-0.4 0.2zm8.6-4.5l-0.4 0.7h0.8zm7.9-13l0.7-1.3h-0.7zm-15.9 0v-1.3h-0.7zm23.1 17.3q-0.3 0-0.5-0.2-0.2-0.1-0.2-0.5v-18.3q0-0.4 0.2-0.5 0.2-0.2 0.5-0.2h10.8q0.3 0 0.4 0.1 0.2 0.2 0.2 0.4 0 0.3-0.2 0.4-0.1 0.2-0.4 0.2h-10.3v8.1h9.7q0.3 0 0.5 0.1 0.1 0.1 0.1 0.4 0 0.3-0.1 0.4-0.2 0.1-0.5 0.1h-9.7v8.4h10.3q0.3 0 0.4 0.2 0.2 0.1 0.2 0.4 0 0.2-0.2 0.4-0.1 0.1-0.4 0.1zm15.8 0.2q-0.2 0-0.4-0.2-0.2-0.2-0.2-0.4v-18.8q0-0.4 0.2-0.5 0.1-0.2 0.3-0.2 0.3 0 0.4 0.1 0.2 0.1 0.3 0.3l12.9 17.5v-17.3q0-0.3 0.1-0.4 0.2-0.2 0.4-0.2 0.3 0 0.4 0.2 0.2 0.1 0.2 0.4v18.8q0 0.3-0.2 0.5-0.1 0.2-0.3 0.2-0.2 0-0.4-0.1-0.1-0.1-0.3-0.3l-12.9-17.5v17.3q0 0.2-0.1 0.4-0.1 0.2-0.4 0.2zm13.5-2.2v0.8h0.6zm-13-15.7v-0.8h-0.5zm24.9 17.9q-0.3 0-0.5-0.2-0.1-0.1-0.1-0.4v-18.2h-7.1q-0.3 0-0.5-0.2-0.1-0.1-0.1-0.4 0-0.2 0.1-0.4 0.2-0.1 0.5-0.1h15.3q0.4 0 0.5 0.1 0.2 0.2 0.2 0.4 0 0.3-0.2 0.5-0.1 0.1-0.5 0.1h-7v18.2q0 0.3-0.2 0.4-0.1 0.2-0.4 0.2zm17.4 0.1q-2.6 0-4.6-1.3-1.9-1.2-3-3.5-1-2.2-1-5.4 0-2.3 0.6-4.2 0.6-1.8 1.7-3.1 1.1-1.3 2.7-2 1.6-0.7 3.6-0.7 2.7 0 4.6 1.2 2 1.2 3 3.5 1.1 2.2 1.1 5.3 0 2.4-0.6 4.3-0.6 1.8-1.8 3.2-1.1 1.3-2.7 2-1.6 0.7-3.6 0.7zm0-1.2q2.4 0 4-1 1.7-1.1 2.5-3.1 0.9-2 0.9-4.9 0-4.2-1.9-6.5-1.9-2.4-5.5-2.4-2.3 0-4 1.1-1.6 1-2.5 3-0.8 2-0.8 4.8 0 4.3 1.9 6.7 1.9 2.3 5.4 2.3zm13.8 1.1q-0.3 0-0.4-0.2-0.2-0.1-0.2-0.4v-18.7q0-0.3 0.2-0.4 0.2-0.2 0.4-0.2h6.6q3.1 0 4.7 1.4 1.7 1.4 1.7 4.1 0 1.7-0.8 2.9-0.7 1.3-2.2 1.9-0.8 0.3-1.7 0.5 0.3 0.1 0.6 0.3 0.8 0.6 1.5 1.9l3.2 6q0.1 0.2 0.1 0.4 0 0.2-0.1 0.4-0.1 0.1-0.3 0.1-0.3 0-0.4-0.1-0.2-0.1-0.3-0.3l-3.3-6.1q-0.7-1.4-1.7-1.9-1-0.5-2.6-0.5h-4.4v8.3q0 0.3-0.1 0.4-0.2 0.2-0.5 0.2zm8.3-9.1q-0.5-0.2-1.2-0.2h-0.2l-0.3 0.3q0.9 0 1.7-0.1zm-7.7-0.9h5.9q2.6 0 3.9-1.1 1.4-1.1 1.4-3.3 0-2.2-1.4-3.3-1.3-1.1-3.9-1.1h-5.9zm23.2 10q-1.4 0-2.7-0.2-1.3-0.3-2.3-0.7-1.1-0.5-2-1.2-0.2-0.2-0.2-0.4-0.1-0.2 0-0.3 0-0.2 0.2-0.3 0.1-0.2 0.3-0.2 0.2 0 0.4 0.2 1.3 1.1 2.8 1.5 1.4 0.5 3.5 0.5 2.8 0 4.2-1.1 1.4-1.1 1.4-3 0-1.5-1.1-2.3-1-0.9-3.3-1.4l-2.8-0.5q-2.6-0.6-3.9-1.8-1.3-1.2-1.3-3.3 0-1.3 0.5-2.3 0.5-1 1.4-1.8 0.9-0.7 2.1-1.1 1.2-0.4 2.7-0.4 1.9 0 3.4 0.5 1.5 0.6 2.8 1.7 0.2 0.2 0.2 0.4 0.1 0.2 0 0.4 0 0.2-0.2 0.3-0.1 0-0.3 0-0.2 0-0.4-0.1-1.2-1.1-2.5-1.6-1.4-0.5-3-0.5-1.6 0-2.9 0.6-1.2 0.5-1.9 1.5-0.7 1-0.7 2.4 0 1.6 1 2.5 0.9 1 3.1 1.4l2.7 0.5q2.9 0.6 4.3 1.8 1.3 1.1 1.3 3.1 0 1.2-0.5 2.1-0.4 1-1.3 1.7-0.9 0.7-2.2 1.1-1.2 0.3-2.8 0.3zm11.4 0q-0.3 0-0.5-0.2-0.1-0.1-0.1-0.4v-18.9q0-0.3 0.1-0.4 0.2-0.2 0.5-0.2 0.2 0 0.4 0.2 0.1 0.1 0.1 0.4v8.8h13.4v-8.8q0-0.3 0.1-0.4 0.2-0.2 0.4-0.2 0.3 0 0.5 0.2 0.1 0.1 0.1 0.4v18.9q0 0.3-0.1 0.4-0.2 0.2-0.5 0.2-0.2 0-0.4-0.2-0.1-0.1-0.1-0.4v-9h-13.4v9q0 0.3-0.1 0.4-0.1 0.2-0.4 0.2zm21 0q-0.3 0-0.4-0.2-0.2-0.1-0.2-0.4v-18.9q0-0.3 0.2-0.4 0.1-0.2 0.4-0.2 0.3 0 0.4 0.2 0.2 0.1 0.2 0.4v18.9q0 0.3-0.2 0.4-0.1 0.2-0.4 0.2zm6.5 0q-0.2 0-0.4-0.2-0.1-0.1-0.1-0.4v-18.7q0-0.3 0.1-0.5 0.2-0.1 0.5-0.1h6.5q3.1 0 4.7 1.5 1.7 1.5 1.7 4.2 0 2.7-1.7 4.2-1.6 1.5-4.7 1.5h-6v7.9q0 0.3-0.1 0.4-0.2 0.2-0.5 0.2zm0.6-9.6h6q2.6 0 3.9-1.2 1.3-1.1 1.3-3.4 0-2.3-1.3-3.4-1.3-1.2-3.9-1.2h-6zm23.6 9.6q-0.3 0-0.5-0.2-0.1-0.2-0.1-0.5v-18.8q0-0.3 0.1-0.5 0.2-0.1 0.5-0.1 0.3 0 0.4 0.1 0.2 0.2 0.2 0.5v18.8q0 0.3-0.2 0.5-0.1 0.2-0.4 0.2zm6.5 0q-0.2 0-0.4-0.2-0.2-0.2-0.2-0.5v-18.8q0-0.3 0.2-0.4 0.1-0.2 0.3-0.2 0.3 0 0.4 0.1 0.2 0.1 0.3 0.3l12.9 17.5v-17.3q0-0.3 0.1-0.5 0.2-0.1 0.4-0.1 0.3 0 0.4 0.1 0.2 0.2 0.2 0.5v18.8q0 0.3-0.2 0.5-0.1 0.2-0.3 0.2-0.2 0-0.4-0.1-0.1-0.1-0.3-0.3l-12.9-17.6v17.3q0 0.3-0.1 0.5-0.1 0.2-0.4 0.2zm13.5-2.2v0.8h0.6zm-13-15.7v-0.8h-0.6zm27 17.7q-0.3 0-0.5-0.2-0.2-0.1-0.2-0.5v-18.3q0-0.4 0.2-0.5 0.2-0.2 0.5-0.2h5.4q4.7 0 7.2 2.5 2.5 2.5 2.5 7.3 0 2.4-0.7 4.3-0.6 1.8-1.8 3.1-1.3 1.2-3.1 1.9-1.8 0.6-4.1 0.6zm0.5-1.1h4.8q2.1 0 3.7-0.5 1.6-0.6 2.7-1.7 1-1.1 1.6-2.7 0.5-1.7 0.5-3.9 0-4.3-2.1-6.5-2.2-2.2-6.4-2.2h-4.8zm17.9 1.2q-0.3 0-0.4-0.1-0.2-0.1-0.2-0.3 0-0.2 0.1-0.5l8-18.5q0.2-0.4 0.4-0.5 0.2-0.1 0.4-0.1 0.2 0 0.4 0.1 0.2 0.1 0.3 0.5l8 18.5q0.1 0.3 0.1 0.5 0 0.2-0.1 0.3-0.1 0.1-0.4 0.1-0.3 0-0.4-0.1-0.2-0.2-0.3-0.5l-2.2-5h-10.9l-2.1 5q-0.2 0.4-0.4 0.5-0.1 0.1-0.3 0.1zm13.7-5.6h0.6l-0.7-0.3zm-10.9 0l0.1-0.2-0.8 0.2zm5.5-12.6l-5 11.6h10l-5-11.6zm-4.9 11.6h-0.7l0.6 0.1zm9.9 0l0.1 0.2 0.6-0.2zm11.1 6.7q-0.3 0-0.4-0.1-0.2-0.2-0.2-0.5v-18.2h-7q-0.3 0-0.5-0.1-0.2-0.2-0.2-0.4 0-0.3 0.2-0.4 0.2-0.2 0.5-0.2h15.3q0.3 0 0.5 0.2 0.1 0.1 0.1 0.4 0 0.2-0.1 0.4-0.2 0.1-0.5 0.1h-7.1v18.2q0 0.3-0.1 0.5-0.2 0.1-0.5 0.1zm7.9 0q-0.3 0-0.5-0.1-0.1-0.1-0.1-0.3 0-0.2 0.1-0.5l8-18.6q0.2-0.3 0.4-0.4 0.2-0.1 0.4-0.1 0.2 0 0.4 0.1 0.2 0.1 0.3 0.4l8 18.6q0.1 0.3 0.1 0.5 0 0.2-0.1 0.3-0.1 0.1-0.4 0.1-0.3 0-0.5-0.1-0.2-0.2-0.3-0.5l-2.1-5h-10.9l-2.2 5q-0.1 0.3-0.3 0.5-0.2 0.1-0.3 0.1zm13.7-5.6h0.6l-0.7-0.3zm-10.9 0l0.1-0.2-0.8 0.2zm5.4-12.6l-4.9 11.5h9.9l-4.9-11.5zm-5 11.5h-0.6l0.6 0.2zm9.9 0l0.1 0.2 0.6-0.2zm20.6 6.8q-1.4 0-2.7-0.3-1.2-0.2-2.3-0.7-1.1-0.5-2-1.2-0.2-0.1-0.2-0.3-0.1-0.2 0-0.4 0-0.2 0.2-0.3 0.1-0.1 0.3-0.1 0.2 0 0.4 0.1 1.3 1.1 2.8 1.6 1.5 0.4 3.5 0.4 2.8 0 4.2-1.1 1.4-1.1 1.4-3 0-1.5-1-2.3-1.1-0.9-3.4-1.4l-2.8-0.5q-2.6-0.5-3.9-1.8-1.3-1.2-1.3-3.3 0-1.3 0.5-2.3 0.5-1 1.4-1.8 0.9-0.7 2.1-1.1 1.2-0.4 2.7-0.4 1.9 0 3.4 0.5 1.5 0.6 2.8 1.7 0.2 0.2 0.3 0.4 0 0.2-0.1 0.4 0 0.2-0.1 0.3-0.2 0.1-0.4 0.1-0.2 0-0.4-0.2-1.2-1.1-2.5-1.6-1.4-0.5-3-0.5-1.6 0-2.9 0.6-1.2 0.5-1.9 1.5-0.7 1-0.7 2.4 0 1.6 1 2.6 0.9 0.9 3.1 1.3l2.7 0.6q2.9 0.6 4.3 1.7 1.3 1.1 1.3 3.1 0 1.2-0.4 2.2-0.5 0.9-1.4 1.6-0.9 0.7-2.2 1.1-1.2 0.4-2.8 0.4zm18.8 0q-2.8 0-4.8-1.3-1.9-1.2-3-3.4-1-2.3-1-5.4 0-2.4 0.5-4.2 0.6-1.9 1.8-3.2 1.1-1.3 2.7-2 1.7-0.7 3.8-0.7 1.9 0 3.5 0.6 1.6 0.6 2.8 1.7 0.2 0.2 0.2 0.4 0.1 0.2 0 0.4 0 0.1-0.2 0.2-0.1 0.1-0.3 0.1-0.2 0-0.4-0.2-1.2-1.1-2.6-1.6-1.3-0.5-3.1-0.5-2.4 0-4.1 1.1-1.6 1-2.5 3-0.9 2-0.9 4.9 0 2.8 0.9 4.8 0.9 2 2.5 3.1 1.7 1 4.1 1 1.7 0 3.1-0.5 1.4-0.5 2.6-1.6 0.2-0.1 0.4-0.2 0.2 0 0.3 0.1 0.2 0.1 0.2 0.3 0.1 0.2 0.1 0.4-0.1 0.2-0.3 0.3-1.2 1.2-2.8 1.8-1.6 0.6-3.5 0.6zm11.3-0.1q-0.3 0-0.5-0.2-0.1-0.1-0.1-0.4v-18.8q0-0.3 0.1-0.5 0.2-0.2 0.5-0.2 0.2 0 0.4 0.2 0.1 0.2 0.1 0.5v18.8q0 0.3-0.1 0.4-0.2 0.2-0.4 0.2zm6.6-0.2q-0.3 0-0.5-0.1-0.2-0.2-0.2-0.6v-18.3q0-0.3 0.2-0.5 0.2-0.2 0.5-0.2h10.8q0.2 0 0.4 0.2 0.2 0.1 0.2 0.3 0 0.3-0.2 0.5-0.2 0.1-0.4 0.1h-10.3v8.1h9.7q0.3 0 0.4 0.1 0.2 0.2 0.2 0.4 0 0.3-0.2 0.4-0.1 0.2-0.4 0.2h-9.7v8.4h10.3q0.2 0 0.4 0.1 0.2 0.1 0.2 0.4 0 0.3-0.2 0.4-0.2 0.1-0.4 0.1zm15.8 0.2q-0.3 0-0.4-0.2-0.2-0.1-0.2-0.4v-18.8q0-0.3 0.2-0.5 0.1-0.2 0.3-0.2 0.3 0 0.4 0.1 0.1 0.1 0.3 0.3l12.9 17.5v-17.2q0-0.3 0.1-0.5 0.2-0.2 0.4-0.2 0.3 0 0.4 0.2 0.1 0.2 0.1 0.5v18.8q0 0.3-0.1 0.4-0.1 0.2-0.3 0.2-0.2 0-0.4-0.1-0.1-0.1-0.3-0.3l-12.9-17.5v17.3q0 0.3-0.1 0.4-0.2 0.2-0.4 0.2zm13.5-2.2v0.9h0.6zm-13-15.8v-0.8h-0.6zm27.4 18q-2.8 0-4.7-1.2-2-1.2-3-3.5-1.1-2.3-1.1-5.4 0-2.4 0.6-4.2 0.6-1.9 1.7-3.2 1.2-1.3 2.8-2 1.6-0.7 3.7-0.7 1.9 0 3.5 0.6 1.7 0.6 2.8 1.7 0.2 0.2 0.3 0.4 0 0.2 0 0.4-0.1 0.2-0.2 0.3-0.2 0.1-0.4 0-0.2 0-0.4-0.2-1.1-1-2.5-1.5-1.4-0.5-3.1-0.5-2.4 0-4.1 1-1.7 1.1-2.6 3.1-0.8 2-0.8 4.8 0 2.8 0.8 4.8 0.9 2 2.6 3.1 1.7 1 4.1 1 1.7 0 3.1-0.5 1.4-0.5 2.5-1.5 0.2-0.2 0.4-0.2 0.2 0 0.4 0 0.1 0.1 0.2 0.3 0 0.2 0 0.4 0 0.2-0.2 0.3-1.2 1.2-2.8 1.8-1.6 0.6-3.6 0.6zm11.4-0.2q-0.3 0-0.5-0.2-0.2-0.2-0.2-0.5v-18.4q0-0.3 0.2-0.5 0.2-0.2 0.5-0.2h10.8q0.2 0 0.4 0.2 0.2 0.1 0.2 0.4 0 0.2-0.2 0.4-0.2 0.1-0.4 0.1h-10.3v8.1h9.7q0.3 0 0.4 0.1 0.2 0.2 0.2 0.4 0 0.3-0.2 0.5-0.1 0.1-0.4 0.1h-9.7v8.4h10.3q0.2 0 0.4 0.1 0.2 0.2 0.2 0.4 0 0.3-0.2 0.4-0.2 0.2-0.4 0.2zm15.8 0q-0.5 0-0.8-0.2-0.3-0.4-0.3-0.8 0-0.5 0.3-0.8 0.3-0.3 0.8-0.3 0.4 0 0.7 0.3 0.3 0.3 0.3 0.8 0 0.4-0.3 0.8-0.3 0.2-0.7 0.2z"/>
			<path id="Layer" class="s1" d="m29.7 124.5q-1 0-1.6-0.4-0.6-0.5-0.9-1.5l-7.5-21.3q-0.4-1.1 0.1-1.9 0.6-0.8 1.9-0.8 1 0 1.5 0.4 0.6 0.5 0.9 1.4l6.5 19.3h-1.5l6.8-19.2q0.3-1 0.9-1.5 0.5-0.4 1.4-0.4 0.9 0 1.4 0.4 0.5 0.5 0.8 1.5l6.6 19.2h-1.3l6.6-19.3q0.3-0.9 0.9-1.4 0.5-0.4 1.4-0.4 1.2 0 1.7 0.8 0.6 0.8 0.2 1.9l-7.6 21.3q-0.4 1-0.9 1.5-0.6 0.4-1.6 0.4-1 0-1.5-0.4-0.6-0.5-1-1.5l-6.2-17.9h0.8l-6.4 17.9q-0.3 1-0.9 1.5-0.5 0.4-1.5 0.4zm33.6-0.3q-1.2 0-1.8-0.6-0.7-0.6-0.7-1.8v-20.5q0-1.2 0.7-1.8 0.6-0.6 1.8-0.6h12.8q0.9 0 1.4 0.4 0.5 0.5 0.5 1.4 0 0.8-0.5 1.3-0.5 0.5-1.4 0.5h-10.8v7h10q1 0 1.5 0.5 0.4 0.5 0.4 1.3 0 0.9-0.4 1.4-0.5 0.5-1.5 0.5h-10v7.4h10.8q0.9 0 1.4 0.4 0.5 0.5 0.5 1.4 0 0.9-0.5 1.4-0.5 0.4-1.4 0.4z"/>
			<path id="Layer" fill-rule="evenodd" class="s2" d="m94.4 124.2q-1.1 0-1.7-0.6-0.6-0.6-0.6-1.7v-20.8q0-1.2 0.6-1.8 0.6-0.6 1.7-0.6 1.1 0 1.7 0.6 0.6 0.6 0.6 1.8v19.2h10.4q1 0 1.5 0.5 0.6 0.5 0.6 1.4 0 1-0.6 1.5-0.5 0.5-1.5 0.5zm27.9 0.4q-3.6 0-6.4-1.6-2.7-1.6-4.3-4.6-1.5-2.9-1.5-6.9 0-3 0.9-5.4 0.9-2.4 2.4-4.1 1.7-1.7 3.9-2.6 2.3-0.9 5-0.9 3.7 0 6.5 1.6 2.7 1.6 4.2 4.5 1.5 2.9 1.5 6.9 0 3-0.8 5.4-0.9 2.4-2.5 4.1-1.6 1.8-3.8 2.7-2.3 0.9-5.1 0.9zm0-4q2.4 0 4-1 1.6-1.1 2.5-3.2 0.9-2 0.9-4.9 0-4.3-1.9-6.7-1.9-2.3-5.5-2.3-2.3 0-3.9 1-1.7 1.1-2.6 3.1-0.9 2-0.9 4.9 0 4.3 2 6.7 1.9 2.4 5.4 2.4zm26.4 3.9q-1 0-1.7-0.4-0.6-0.5-1-1.4l-9.4-21.1q-0.4-0.9-0.2-1.6 0.2-0.6 0.8-1 0.5-0.4 1.3-0.4 1.1 0 1.6 0.4 0.5 0.5 0.9 1.4l7.7 17.9 7.8-18q0.4-0.8 0.9-1.3 0.5-0.4 1.5-0.4 0.8 0 1.3 0.4 0.5 0.4 0.7 1 0.1 0.7-0.3 1.6l-9.4 21.1q-0.4 0.9-1 1.4-0.5 0.4-1.5 0.4zm0-6.2l-0.7 1.8h1.5zm18 5.9q-1.2 0-1.9-0.6-0.6-0.6-0.6-1.8v-20.5q0-1.2 0.6-1.8 0.7-0.6 1.9-0.6h12.8q0.9 0 1.4 0.4 0.5 0.5 0.5 1.4 0 0.8-0.5 1.3-0.5 0.5-1.4 0.5h-10.9v7h10.1q1 0 1.4 0.5 0.5 0.4 0.5 1.3 0 0.9-0.5 1.4-0.4 0.5-1.4 0.5h-10.1v7.4h10.9q0.9 0 1.4 0.4 0.5 0.5 0.5 1.4 0 0.9-0.5 1.4-0.5 0.4-1.4 0.4z"/>
			<path id="Layer" fill-rule="evenodd" class="s3" d="m200.5 124.4q-0.2 0-0.4-0.2-0.1-0.1-0.1-0.4v-18.2h-7.1q-0.3 0-0.5-0.2-0.1-0.1-0.1-0.4 0-0.2 0.1-0.4 0.2-0.1 0.5-0.1h15.3q0.3 0 0.5 0.1 0.1 0.2 0.1 0.4 0 0.3-0.1 0.5-0.2 0.1-0.5 0.1h-7.1v18.2q0 0.3-0.1 0.4-0.1 0.2-0.5 0.2zm17.5 0.1q-2.7 0-4.6-1.3-1.9-1.2-3-3.5-1-2.2-1-5.4 0-2.3 0.5-4.2 0.6-1.8 1.8-3.1 1.1-1.3 2.7-2 1.6-0.7 3.6-0.7 2.7 0 4.6 1.2 2 1.2 3 3.5 1 2.2 1 5.3 0 2.4-0.6 4.2-0.6 1.9-1.7 3.2-1.1 1.4-2.7 2.1-1.6 0.7-3.6 0.7zm0-1.2q2.4 0 4-1 1.6-1.1 2.5-3.1 0.9-2 0.9-4.9 0-4.2-1.9-6.5-1.9-2.4-5.5-2.4-2.3 0-4 1.1-1.6 1-2.5 3-0.9 2-0.9 4.8 0 4.3 2 6.7 1.9 2.3 5.4 2.3zm20.7 0.9q-0.3 0-0.4-0.1-0.2-0.2-0.2-0.5v-18.7q0-0.3 0.2-0.4 0.1-0.2 0.4-0.2 0.3 0 0.4 0.2 0.2 0.1 0.2 0.4v18.2h10q0.4 0 0.5 0.2 0.2 0.1 0.2 0.4 0 0.3-0.2 0.4-0.1 0.1-0.5 0.1zm14.9 0q-0.3 0-0.5-0.1-0.2-0.2-0.2-0.6v-18.3q0-0.3 0.2-0.5 0.2-0.2 0.5-0.2h10.7q0.3 0 0.5 0.1 0.1 0.2 0.1 0.4 0 0.3-0.1 0.5-0.2 0.1-0.5 0.1h-10.2v8.1h9.7q0.3 0 0.4 0.1 0.2 0.2 0.2 0.4 0 0.3-0.2 0.4-0.1 0.2-0.4 0.2h-9.7v8.3h10.2q0.3 0 0.5 0.2 0.1 0.1 0.1 0.4 0 0.3-0.1 0.4-0.2 0.1-0.5 0.1zm13.9 0.2q-0.3 0-0.4-0.1-0.1-0.1-0.1-0.3 0-0.2 0.1-0.5l8-18.6q0.1-0.3 0.3-0.4 0.2-0.2 0.4-0.2 0.2 0 0.4 0.2 0.2 0.1 0.3 0.4l8.1 18.6q0.1 0.3 0.1 0.5 0 0.2-0.2 0.3-0.1 0.1-0.3 0.1-0.3 0-0.5-0.2-0.2-0.1-0.3-0.4l-2.1-5h-10.9l-2.2 5q-0.1 0.3-0.3 0.5-0.2 0.1-0.4 0.1zm13.8-5.6h0.6l-0.8-0.3zm-10.9 0l0.2-0.3-0.8 0.3zm5.4-12.7l-4.9 11.6h9.9l-4.9-11.6zm-5 11.6h-0.7l0.6 0.2zm10 0l0.1 0.1 0.5-0.1zm8.4 6.7q-0.3 0-0.5-0.2-0.1-0.1-0.1-0.4v-18.7q0-0.3 0.1-0.5 0.2-0.1 0.5-0.1h6.5q3.1 0 4.7 1.4 1.7 1.4 1.7 4.1 0 1.7-0.7 2.9-0.8 1.2-2.2 1.9-0.8 0.3-1.8 0.5 0.4 0.1 0.7 0.3 0.7 0.6 1.4 1.8l3.2 6q0.2 0.3 0.2 0.5-0.1 0.2-0.2 0.4-0.1 0.1-0.3 0.1-0.3 0-0.4-0.1-0.2-0.2-0.3-0.4l-3.2-6q-0.8-1.5-1.8-1.9-0.9-0.5-2.6-0.5h-4.4v8.3q0 0.3-0.1 0.4-0.2 0.2-0.4 0.2zm8.2-9.1q-0.5-0.2-1.2-0.2h-0.2l-0.3 0.3q0.9 0 1.7-0.1zm-7.7-0.9h5.9q2.6 0 4-1.1 1.3-1.1 1.3-3.3 0-2.2-1.3-3.3-1.4-1.1-4-1.1h-5.9zm17.7 10q-0.2 0-0.4-0.2-0.1-0.2-0.1-0.4v-18.9q0-0.3 0.1-0.4 0.2-0.2 0.4-0.2 0.2 0 0.3 0.1 0.2 0.1 0.3 0.3l12.9 17.5v-17.3q0-0.3 0.2-0.4 0.1-0.2 0.4-0.2 0.2 0 0.4 0.2 0.1 0.1 0.1 0.4v18.8q0 0.3-0.1 0.5-0.2 0.2-0.4 0.2-0.2 0-0.3-0.1-0.2-0.1-0.3-0.3l-12.9-17.5v17.3q0 0.2-0.2 0.4-0.1 0.2-0.4 0.2zm13.5-2.2v0.8h0.6zm-12.9-15.7v-0.8h-0.6zm25.3 17.9q-0.3 0-0.4-0.1-0.1-0.1-0.1-0.3 0-0.2 0.1-0.5l8-18.6q0.1-0.3 0.3-0.4 0.2-0.2 0.4-0.2 0.2 0 0.4 0.2 0.2 0.1 0.3 0.4l8 18.6q0.2 0.3 0.2 0.5 0 0.2-0.2 0.3-0.1 0.1-0.3 0.1-0.3 0-0.5-0.2-0.2-0.1-0.3-0.4l-2.2-5h-10.9l-2.1 5q-0.1 0.3-0.3 0.5-0.2 0.1-0.4 0.1zm13.7-5.6h0.7l-0.8-0.3zm-10.9 0l0.1-0.3-0.7 0.3zm5.4-12.7l-4.9 11.6h9.9l-5-11.6zm-4.9 11.6h-0.7l0.6 0.2zm10 0v0.1l0.6-0.1zm8.4 6.5q-0.3 0-0.5-0.1-0.2-0.2-0.2-0.6v-18.3q0-0.4 0.2-0.5 0.2-0.2 0.5-0.2h6.6q2 0 3.4 0.6 1.4 0.6 2.1 1.7 0.8 1.2 0.8 2.9 0 1.8-1.1 3.1-0.9 0.9-2.2 1.3 1.5 0.4 2.5 1.4 1.2 1.3 1.2 3.4 0 2.6-1.6 4-1.7 1.3-4.8 1.3zm9.6-10.1q-0.4-0.1-0.9-0.1v0.4q0.5-0.1 0.9-0.3zm-9.1 9h6.4q2.6 0 3.9-1 1.3-1 1.3-3.1 0-2.2-1.3-3.2-1.3-1-3.9-1h-6.4zm0-9.5h6q2.5 0 3.8-1 1.3-1 1.3-3 0-2-1.3-3-1.3-1.1-3.8-1.1h-6zm25.3 10.8q-2.7 0-4.6-1.2-1.9-1.3-3-3.5-1-2.3-1-5.4 0-2.4 0.6-4.2 0.5-1.9 1.7-3.2 1.1-1.3 2.7-2 1.6-0.7 3.6-0.7 2.7 0 4.6 1.2 2 1.2 3 3.5 1.1 2.3 1.1 5.4 0 2.3-0.7 4.2-0.5 1.9-1.7 3.2-1.1 1.3-2.7 2-1.6 0.7-3.6 0.7zm0-1.2q2.4 0 4-1 1.7-1.1 2.5-3.1 0.9-2 0.9-4.8 0-4.3-1.9-6.6-1.9-2.3-5.5-2.3-2.3 0-4 1-1.6 1.1-2.5 3.1-0.9 2-0.9 4.8 0 4.2 2 6.6 1.9 2.3 5.4 2.3zm20.6 1.2q-1.8 0-3.3-0.5-1.4-0.5-2.3-1.5-0.9-1-1.4-2.4-0.5-1.5-0.5-3.4v-11.7q0-0.3 0.1-0.5 0.2-0.1 0.5-0.1 0.2 0 0.4 0.1 0.1 0.2 0.1 0.5v11.5q0 3.5 1.7 5.2 1.6 1.6 4.7 1.6 3.2 0 4.8-1.6 1.6-1.7 1.6-5.2v-11.5q0-0.3 0.1-0.5 0.2-0.1 0.5-0.1 0.2 0 0.4 0.1 0.1 0.2 0.1 0.5v11.7q0 2.5-0.8 4.3-0.9 1.7-2.6 2.6-1.6 0.9-4.1 0.9zm18.3-0.1q-0.3 0-0.4-0.1-0.2-0.2-0.2-0.5v-18.2h-7.1q-0.3 0-0.4-0.1-0.2-0.2-0.2-0.4 0-0.3 0.2-0.4 0.1-0.2 0.4-0.2h15.4q0.3 0 0.4 0.2 0.2 0.1 0.2 0.4 0 0.2-0.2 0.4-0.1 0.1-0.4 0.1h-7.1v18.2q0 0.3-0.2 0.5-0.1 0.1-0.4 0.1zm23.1 0q-0.2 0-0.4-0.1-0.1-0.2-0.1-0.5v-9.1l-7-9.4q-0.2-0.3-0.2-0.5 0-0.2 0.2-0.3 0.1-0.1 0.3-0.1 0.2 0 0.4 0.1 0.2 0 0.3 0.3l6.6 8.9 6.6-8.9q0.1-0.3 0.3-0.3 0.1-0.1 0.4-0.1 0.1 0 0.3 0.1 0.1 0.1 0.1 0.3 0 0.2-0.2 0.5l-7 9.4v9.1q0 0.6-0.6 0.6zm-0.5-9.7l0.3 0.4-0.3-1.1zm0.6-1l-0.2 0.3h0.4zm0.5 1v-0.7l-0.2 1.1zm16.7 9.8q-2.6 0-4.6-1.2-1.9-1.3-3-3.5-1-2.3-1-5.4 0-2.4 0.6-4.2 0.6-1.9 1.7-3.2 1.1-1.3 2.7-2 1.6-0.7 3.6-0.7 2.7 0 4.6 1.2 2 1.2 3 3.5 1.1 2.2 1.1 5.4 0 2.3-0.6 4.2-0.6 1.9-1.8 3.2-1.1 1.3-2.7 2-1.6 0.7-3.6 0.7zm0-1.2q2.4 0 4-1 1.7-1.1 2.5-3.1 0.9-2 0.9-4.8 0-4.3-1.9-6.6-1.9-2.3-5.5-2.3-2.3 0-4 1-1.6 1-2.5 3-0.9 2-0.9 4.9 0 4.2 2 6.6 1.9 2.3 5.4 2.3zm20.6 1.2q-1.8 0-3.3-0.5-1.4-0.5-2.3-1.5-0.9-1-1.4-2.5-0.5-1.4-0.5-3.3v-11.7q0-0.3 0.1-0.5 0.2-0.1 0.5-0.1 0.3 0 0.4 0.1 0.2 0.2 0.2 0.5v11.5q0 3.5 1.6 5.2 1.6 1.6 4.7 1.6 3.2 0 4.8-1.6 1.6-1.7 1.6-5.2v-11.5q0-0.3 0.1-0.5 0.2-0.1 0.5-0.1 0.2 0 0.4 0.1 0.1 0.2 0.1 0.5v11.7q0 2.5-0.8 4.3-0.9 1.7-2.5 2.6-1.7 0.9-4.2 0.9zm13.4-0.1q-0.3 0-0.5-0.1-0.1-0.2-0.1-0.5v-18.7q0-0.3 0.2-0.4 0.1-0.2 0.4-0.2h6.5q3.1 0 4.8 1.5 1.6 1.4 1.6 4 0 1.7-0.7 3-0.8 1.2-2.2 1.8-0.8 0.4-1.8 0.5 0.4 0.2 0.7 0.4 0.8 0.5 1.4 1.8l3.3 6q0.1 0.2 0.1 0.4 0 0.3-0.2 0.4-0.1 0.1-0.3 0.1-0.2 0-0.4-0.1-0.2-0.1-0.3-0.3l-3.2-6.1q-0.8-1.4-1.7-1.9-1-0.5-2.6-0.5h-4.4v8.3q0 0.3-0.2 0.5-0.1 0.1-0.4 0.1zm8.2-9.1q-0.5-0.2-1.1-0.2h-0.3l-0.3 0.4q0.9 0 1.7-0.2zm-7.6-0.9h5.8q2.7 0 4-1.1 1.3-1.1 1.3-3.3 0-2.1-1.3-3.3-1.3-1.1-4-1.1h-5.8zm32.5 10.1q-3 0-5.1-1.2-2.1-1.2-3.2-3.5-1-2.2-1-5.4 0-2.4 0.5-4.2 0.6-1.9 1.8-3.2 1.1-1.3 2.7-2 1.7-0.7 3.8-0.7 1.9 0 3.6 0.6 1.7 0.6 2.9 1.8 0.2 0.2 0.2 0.3 0.1 0.2 0 0.4-0.1 0.2-0.2 0.3-0.2 0.1-0.3 0.1-0.2 0-0.4-0.2-1.2-1.2-2.7-1.7-1.4-0.5-3.2-0.5-2.4 0-4.1 1.1-1.6 1-2.5 3-0.9 2-0.9 4.9 0 4.3 2.1 6.6 2 2.3 6 2.3 1.6 0 3-0.3 1.2-0.2 2.3-0.7v-6.9h-4.9q-0.3 0-0.4-0.1-0.2-0.2-0.2-0.5 0-0.2 0.2-0.3 0.1-0.2 0.4-0.2h5.4q0.3 0 0.4 0.2 0.2 0.1 0.2 0.4v7.8q0 0.2-0.1 0.3-0.1 0.2-0.2 0.3-1.1 0.5-2.8 0.8-1.7 0.4-3.3 0.4zm5.3-2.2v1l0.3-1.1q-0.2 0.1-0.3 0.1zm14.1 2.2q-2.7 0-4.6-1.2-1.9-1.3-3-3.5-1-2.3-1-5.4 0-2.4 0.6-4.2 0.5-1.9 1.7-3.2 1.1-1.3 2.7-2 1.6-0.7 3.6-0.7 2.7 0 4.6 1.2 2 1.2 3 3.5 1.1 2.2 1.1 5.3 0 2.4-0.7 4.3-0.5 1.8-1.7 3.2-1.1 1.3-2.7 2-1.6 0.7-3.6 0.7zm0-1.2q2.4 0 4-1 1.7-1.1 2.5-3.1 0.9-2 0.9-4.8 0-4.3-1.9-6.6-1.9-2.4-5.5-2.4-2.3 0-4 1.1-1.6 1-2.5 3-0.9 2-0.9 4.9 0 4.2 2 6.6 1.9 2.3 5.4 2.3zm12 1.1q-0.3 0-0.4-0.1-0.2-0.1-0.2-0.3 0-0.2 0.1-0.5l8-18.6q0.2-0.3 0.4-0.4 0.2-0.2 0.4-0.2 0.2 0 0.4 0.2 0.2 0.1 0.3 0.4l8 18.6q0.1 0.3 0.1 0.5 0 0.2-0.1 0.3-0.1 0.1-0.4 0.1-0.3 0-0.4-0.1-0.2-0.2-0.3-0.5l-2.2-5h-10.9l-2.1 5q-0.2 0.3-0.4 0.5-0.1 0.1-0.3 0.1zm13.7-5.6h0.6l-0.7-0.3zm-10.9 0l0.1-0.2-0.8 0.2zm5.5-12.7l-5 11.6h10l-5-11.6zm-4.9 11.6h-0.7l0.6 0.2zm9.9 0l0.1 0.2 0.6-0.2zm8.3 6.5q-0.2 0-0.4-0.1-0.2-0.2-0.2-0.5v-18.7q0-0.3 0.2-0.4 0.1-0.2 0.4-0.2 0.3 0 0.4 0.2 0.2 0.1 0.2 0.4v18.2h10.1q0.3 0 0.4 0.2 0.2 0.1 0.2 0.4 0 0.3-0.2 0.4-0.1 0.1-0.4 0.1zm19.5 0.3q-1.4 0-2.6-0.3-1.3-0.2-2.4-0.7-1-0.5-1.9-1.2-0.2-0.2-0.3-0.3 0-0.2 0-0.4 0.1-0.2 0.2-0.3 0.2-0.1 0.4-0.1 0.2 0 0.4 0.1 1.3 1.1 2.7 1.6 1.5 0.4 3.5 0.4 2.8 0 4.3-1.1 1.4-1.1 1.4-3 0-1.5-1.1-2.3-1-0.9-3.3-1.4l-2.8-0.5q-2.7-0.6-4-1.8-1.2-1.2-1.2-3.3 0-1.3 0.5-2.3 0.5-1 1.3-1.8 0.9-0.7 2.2-1.1 1.2-0.4 2.7-0.4 1.8 0 3.4 0.5 1.5 0.6 2.8 1.7 0.2 0.2 0.2 0.4 0.1 0.2 0 0.4-0.1 0.2-0.2 0.3-0.1 0.1-0.3 0.1-0.2 0-0.4-0.2-1.2-1.1-2.5-1.6-1.4-0.5-3-0.5-1.7 0-2.9 0.6-1.2 0.5-1.9 1.5-0.7 1-0.7 2.4 0 1.6 1 2.5 0.9 1 3 1.4l2.8 0.6q2.9 0.5 4.2 1.7 1.4 1.1 1.4 3.1 0 1.2-0.5 2.2-0.4 0.9-1.3 1.6-0.9 0.7-2.2 1.1-1.3 0.4-2.9 0.4zm16.8-0.1q-0.3 0-0.4-0.1-0.2-0.1-0.2-0.3 0-0.2 0.1-0.5l8-18.6q0.2-0.3 0.4-0.4 0.2-0.2 0.4-0.2 0.2 0 0.4 0.2 0.2 0.1 0.3 0.4l8 18.6q0.1 0.3 0.1 0.5 0 0.2-0.1 0.3-0.1 0.1-0.4 0.1-0.3 0-0.4-0.2-0.2-0.1-0.3-0.4l-2.2-5h-10.9l-2.1 5q-0.2 0.3-0.4 0.5-0.1 0.1-0.3 0.1zm13.7-5.6h0.6l-0.7-0.3zm-10.9 0l0.1-0.2-0.8 0.2zm5.5-12.7l-5 11.6h10l-5-11.6zm-4.9 11.6h-0.7l0.6 0.2zm9.9 0l0.1 0.1 0.6-0.1zm8.3 6.7q-0.3 0-0.4-0.2-0.2-0.1-0.2-0.4v-18.8q0-0.3 0.2-0.5 0.1-0.2 0.3-0.2 0.3 0 0.4 0.1 0.1 0.1 0.3 0.3l12.8 17.5v-17.3q0-0.3 0.2-0.4 0.2-0.2 0.4-0.2 0.3 0 0.4 0.2 0.1 0.1 0.1 0.4v18.9q0 0.3-0.1 0.4-0.1 0.2-0.3 0.2-0.2 0-0.4-0.1-0.1-0.1-0.3-0.3l-12.9-17.5v17.3q0 0.3-0.1 0.4-0.2 0.2-0.4 0.2zm13.4-2.2v0.9h0.7zm-13-15.8v-0.8h-0.6zm20.1 17.8q-0.3 0-0.5-0.2-0.2-0.2-0.2-0.5v-18.4q0-0.3 0.2-0.5 0.2-0.2 0.5-0.2h5.4q4.6 0 7.1 2.5 2.6 2.5 2.6 7.4 0 2.4-0.7 4.2-0.6 1.9-1.9 3.1-1.2 1.3-3 1.9-1.8 0.7-4.1 0.7zm0.5-1.1h4.8q2.1 0 3.7-0.6 1.6-0.6 2.6-1.6 1.1-1.1 1.6-2.8 0.6-1.6 0.6-3.8 0-4.4-2.2-6.6-2.1-2.2-6.3-2.2h-4.8zm26.6 1.3q-0.3 0-0.5-0.2-0.1-0.2-0.1-0.4v-18.9q0-0.3 0.1-0.4 0.2-0.2 0.5-0.2 0.3 0 0.4 0.2 0.2 0.1 0.2 0.4v8.7h13.3v-8.7q0-0.3 0.1-0.4 0.2-0.2 0.5-0.2 0.2 0 0.4 0.2 0.1 0.1 0.1 0.4v18.9q0 0.2-0.1 0.4-0.2 0.2-0.4 0.2-0.3 0-0.5-0.2-0.1-0.2-0.1-0.4v-9.1h-13.3v9.1q0 0.2-0.2 0.4-0.1 0.2-0.4 0.2zm21.1-0.2q-0.3 0-0.5-0.2-0.2-0.2-0.2-0.5v-18.3q0-0.4 0.2-0.5 0.2-0.2 0.5-0.2h10.8q0.3 0 0.4 0.1 0.2 0.2 0.2 0.4 0 0.3-0.2 0.4-0.1 0.2-0.4 0.2h-10.3v8h9.7q0.3 0 0.4 0.2 0.2 0.1 0.2 0.4 0 0.3-0.2 0.4-0.1 0.1-0.4 0.1h-9.7v8.4h10.3q0.3 0 0.4 0.2 0.2 0.1 0.2 0.3 0 0.3-0.2 0.5-0.1 0.1-0.4 0.1zm15.8 0q-0.2 0-0.4-0.2-0.2-0.1-0.2-0.4v-18.7q0-0.3 0.2-0.4 0.1-0.2 0.4-0.2 0.3 0 0.4 0.2 0.2 0.1 0.2 0.4v18.2h10.1q0.3 0 0.4 0.2 0.2 0.1 0.2 0.3 0 0.3-0.2 0.5-0.1 0.1-0.4 0.1zm14.7 0.2q-0.3 0-0.4-0.2-0.2-0.2-0.2-0.4v-18.7q0-0.3 0.2-0.5 0.2-0.1 0.4-0.1h6.6q3.1 0 4.7 1.5 1.7 1.4 1.7 4.2 0 2.7-1.7 4.2-1.6 1.5-4.7 1.5h-6v7.9q0 0.2-0.1 0.4-0.2 0.2-0.5 0.2zm0.6-9.6h5.9q2.6 0 3.9-1.2 1.4-1.2 1.4-3.4 0-2.3-1.4-3.5-1.3-1.1-3.9-1.1h-5.9zm28.3 9.5q-0.2 0-0.4-0.1-0.2-0.2-0.2-0.5v-9.1l-6.9-9.4q-0.2-0.3-0.2-0.5 0-0.2 0.1-0.3 0.2-0.1 0.4-0.1 0.2 0 0.4 0.1 0.1 0 0.3 0.3l6.6 8.9 6.6-8.9q0.1-0.3 0.3-0.3 0.1-0.1 0.3-0.1 0.2 0 0.4 0.1 0.1 0.1 0.1 0.3 0 0.2-0.2 0.5l-7 9.4v9.1q0 0.6-0.6 0.6zm-0.6-9.7l0.4 0.4-0.4-1.1zm0.7-1l-0.2 0.3h0.4zm0.5 1v-0.7l-0.2 1.1zm16.7 9.8q-2.7 0-4.6-1.2-1.9-1.3-3-3.5-1-2.3-1-5.4 0-2.4 0.5-4.2 0.6-1.9 1.8-3.2 1.1-1.3 2.7-2 1.6-0.7 3.6-0.7 2.7 0 4.6 1.2 2 1.2 3 3.5 1.1 2.3 1.1 5.4 0 2.3-0.7 4.2-0.6 1.9-1.7 3.2-1.1 1.3-2.7 2-1.6 0.7-3.6 0.7zm0-1.2q2.4 0 4-1 1.7-1.1 2.5-3.1 0.9-2 0.9-4.8 0-4.3-1.9-6.6-1.9-2.3-5.5-2.3-2.3 0-4 1-1.6 1-2.5 3-0.9 2-0.9 4.9 0 4.2 2 6.6 1.9 2.3 5.4 2.3zm20.6 1.2q-1.8 0-3.3-0.5-1.4-0.5-2.3-1.5-0.9-1-1.4-2.5-0.5-1.4-0.5-3.3v-11.7q0-0.3 0.1-0.5 0.2-0.1 0.5-0.1 0.2 0 0.4 0.1 0.1 0.2 0.1 0.5v11.5q0 3.5 1.7 5.2 1.6 1.6 4.7 1.6 3.2 0 4.8-1.6 1.6-1.7 1.6-5.2v-11.5q0-0.3 0.1-0.5 0.2-0.1 0.5-0.1 0.2 0 0.4 0.1 0.1 0.2 0.1 0.5v11.7q0 2.5-0.8 4.3-0.9 1.7-2.6 2.6-1.6 0.9-4.1 0.9z"/>
			<path id="Layer" fill-rule="evenodd" class="s3" d="m830 124.5q-1.4 0-2.7-0.3-1.3-0.2-2.3-0.7-1.1-0.5-2-1.2-0.2-0.2-0.2-0.3-0.1-0.3 0-0.4 0-0.2 0.2-0.3 0.1-0.1 0.3-0.1 0.2 0 0.4 0.1 1.3 1.1 2.8 1.5 1.4 0.5 3.5 0.5 2.8 0 4.2-1.1 1.4-1.1 1.4-3 0-1.5-1.1-2.3-1-0.9-3.3-1.4l-2.8-0.5q-2.6-0.6-3.9-1.8-1.3-1.2-1.3-3.3 0-1.3 0.5-2.3 0.5-1 1.4-1.8 0.9-0.7 2.1-1.1 1.2-0.4 2.7-0.4 1.9 0 3.4 0.5 1.5 0.6 2.8 1.7 0.2 0.2 0.2 0.4 0.1 0.2 0 0.4 0 0.2-0.2 0.3-0.1 0.1-0.3 0.1-0.2 0-0.4-0.2-1.2-1.1-2.5-1.6-1.4-0.5-3-0.5-1.6 0-2.9 0.6-1.2 0.5-1.9 1.5-0.7 1-0.7 2.4 0 1.6 1 2.5 0.9 1 3.1 1.4l2.7 0.5q2.9 0.6 4.3 1.8 1.3 1.1 1.3 3.1 0 1.2-0.5 2.1-0.4 1-1.3 1.7-0.9 0.7-2.2 1.1-1.2 0.4-2.8 0.4zm18.2 0q-1.9 0-3.3-0.5-1.4-0.5-2.3-1.5-1-1-1.5-2.5-0.5-1.5-0.5-3.4v-11.7q0-0.3 0.2-0.4 0.1-0.2 0.4-0.2 0.3 0 0.4 0.2 0.2 0.1 0.2 0.4v11.6q0 3.4 1.6 5.1 1.6 1.7 4.8 1.7 3.1 0 4.7-1.7 1.6-1.7 1.6-5.1v-11.6q0-0.3 0.2-0.4 0.1-0.2 0.4-0.2 0.3 0 0.4 0.2 0.2 0.1 0.2 0.4v11.7q0 2.6-0.9 4.3-0.8 1.8-2.5 2.7-1.7 0.9-4.1 0.9zm20.7 0q-2.8 0-4.7-1.3-2-1.2-3-3.5-1.1-2.2-1.1-5.4 0-2.3 0.6-4.2 0.6-1.8 1.7-3.1 1.2-1.3 2.8-2 1.6-0.7 3.7-0.7 1.9 0 3.5 0.6 1.7 0.6 2.8 1.7 0.2 0.2 0.3 0.4 0 0.2 0 0.4-0.1 0.1-0.2 0.2-0.2 0.1-0.4 0.1-0.2 0-0.4-0.2-1.1-1.1-2.5-1.6-1.4-0.5-3.1-0.5-2.4 0-4.1 1.1-1.7 1-2.6 3-0.8 2-0.8 4.8 0 2.9 0.8 4.9 0.9 2 2.6 3.1 1.7 1 4.1 1 1.7 0 3.1-0.5 1.4-0.5 2.5-1.6 0.2-0.2 0.4-0.2 0.2 0 0.4 0.1 0.1 0.1 0.2 0.3 0 0.1 0 0.3 0 0.2-0.2 0.4-1.2 1.2-2.8 1.8-1.6 0.6-3.6 0.6zm18.1 0q-2.8 0-4.7-1.3-2-1.2-3-3.5-1.1-2.2-1.1-5.4 0-2.3 0.6-4.2 0.6-1.8 1.7-3.1 1.2-1.3 2.8-2 1.7-0.7 3.7-0.7 1.9 0 3.6 0.6 1.6 0.6 2.8 1.7 0.1 0.2 0.2 0.4 0.1 0.2 0 0.4-0.1 0.1-0.2 0.2-0.2 0.1-0.4 0.1-0.2 0-0.4-0.2-1.1-1.1-2.5-1.6-1.4-0.5-3.1-0.5-2.4 0-4.1 1.1-1.7 1-2.5 3-0.9 2-0.9 4.8 0 2.9 0.9 4.9 0.8 2 2.5 3.1 1.7 1 4.1 1 1.7 0 3.1-0.5 1.4-0.5 2.5-1.6 0.2-0.2 0.4-0.2 0.2 0 0.4 0.1 0.1 0.1 0.2 0.3 0.1 0.1 0 0.3 0 0.2-0.2 0.4-1.2 1.2-2.8 1.8-1.6 0.6-3.6 0.6zm11.4-0.3q-0.3 0-0.5-0.1-0.2-0.2-0.2-0.6v-18.3q0-0.3 0.2-0.5 0.2-0.2 0.5-0.2h10.8q0.3 0 0.4 0.1 0.2 0.2 0.2 0.4 0 0.3-0.2 0.5-0.1 0.1-0.4 0.1h-10.3v8.1h9.7q0.3 0 0.5 0.1 0.1 0.2 0.1 0.4 0 0.3-0.1 0.4-0.2 0.2-0.5 0.2h-9.7v8.3h10.3q0.3 0 0.4 0.2 0.2 0.1 0.2 0.4 0 0.3-0.2 0.4-0.1 0.1-0.4 0.1zm15.9 0q-0.3 0-0.5-0.1-0.2-0.2-0.2-0.6v-18.3q0-0.3 0.2-0.5 0.2-0.2 0.5-0.2h10.8q0.3 0 0.4 0.1 0.2 0.2 0.2 0.4 0 0.3-0.2 0.5-0.1 0.1-0.4 0.1h-10.3v8.1h9.7q0.3 0 0.5 0.1 0.1 0.2 0.1 0.4 0 0.3-0.1 0.4-0.2 0.2-0.5 0.2h-9.7v8.3h10.3q0.3 0 0.4 0.2 0.2 0.1 0.2 0.4 0 0.3-0.2 0.4-0.1 0.1-0.4 0.1zm15.9 0q-0.3 0-0.5-0.1-0.2-0.2-0.2-0.6v-18.3q0-0.3 0.2-0.5 0.2-0.2 0.5-0.2h5.4q4.7 0 7.2 2.5 2.5 2.5 2.5 7.3 0 2.5-0.7 4.3-0.6 1.9-1.8 3.1-1.3 1.3-3.1 1.9-1.8 0.6-4.1 0.6zm0.5-1.1h4.8q2.1 0 3.7-0.5 1.6-0.6 2.7-1.7 1-1.1 1.6-2.7 0.5-1.7 0.5-3.9 0-4.3-2.1-6.5-2.2-2.2-6.4-2.2h-4.8zm18.4 1.2q-0.4 0-0.7-0.3-0.3-0.3-0.3-0.8 0-0.5 0.3-0.8 0.3-0.3 0.7-0.3 0.5 0 0.8 0.3 0.3 0.3 0.3 0.8 0 0.5-0.3 0.8-0.3 0.3-0.8 0.3z"/>
		</g>
	</g>
</svg>