<svg width="36" height="34" viewBox="0 0 36 34" fill="none" xmlns="http://www.w3.org/2000/svg">
<g id="Frame 37764">
<g id="Group 2263">
<path id="Polygon 10" d="M16.8349 2.75L17.9826 3.41263L16.8349 2.75L4.71058 23.75C3.74833 25.4167 4.95114 27.5 6.87564 27.5H31.1244C33.0489 27.5 34.2517 25.4167 33.2894 23.75L21.1651 2.75C20.2028 1.08334 17.7972 1.08333 16.8349 2.75Z" stroke="#619D1F" stroke-width="3"/>
</g>
<g id="Group 2262">
<path id="Polygon 10_2" d="M11.732 4.99988C10.9622 3.6666 9.03778 3.6666 8.26797 4.99988L9.13399 5.4999L8.26797 4.99988L2.20584 15.4992C1.436 16.8326 2.39824 18.4993 3.93787 18.4993H16.0621C17.6018 18.4993 18.564 16.8326 17.7942 15.4992L11.732 4.99988Z" stroke="#98C045" stroke-width="2"/>
</g>
<path id="Line 9" d="M14.9556 6.00305L11.8306 11.4063" stroke="#619D1F" stroke-width="3"/>
</g>
</svg>
