<svg width="400" height="332" viewBox="0 0 400 332" fill="none" xmlns="http://www.w3.org/2000/svg">
<g clip-path="url(#clip0_3799_8785)">
<path d="M273.266 0.000973985L0 160.997L8.21827 174.786L281.484 13.7904L273.266 0.000973985Z" fill="#EFECE9"/>
<path d="M332.656 13.501L59.3906 174.497L67.6089 188.286L340.875 27.2903L332.656 13.501Z" fill="#EFECE9"/>
<path d="M385.258 28.2627L111.992 189.259L120.21 203.048L393.476 42.0521L385.258 28.2627Z" fill="#EFECE9"/>
<path d="M177.99 188.725C225.241 188.725 263.546 150.64 263.546 103.66C263.546 56.6805 225.241 18.5957 177.99 18.5957C130.738 18.5957 92.4336 56.6805 92.4336 103.66C92.4336 150.64 130.738 188.725 177.99 188.725Z" fill="white"/>
<path d="M91.7969 103.662C91.7969 56.4086 130.463 17.9648 177.99 17.9648C225.516 17.9648 264.182 56.4086 264.182 103.662C264.182 150.916 225.516 189.36 177.99 189.36C130.463 189.36 91.7969 150.916 91.7969 103.662ZM93.0696 103.662C93.0696 150.218 131.165 188.094 177.99 188.094C224.815 188.094 262.909 150.218 262.909 103.662C262.909 57.1064 224.815 19.2303 177.99 19.2303C131.165 19.2303 93.0696 57.1064 93.0696 103.662Z" fill="#0B2F0B"/>
<path d="M162.742 104.032C162.742 101.033 163.637 98.1011 165.312 95.6074C166.988 93.1137 169.37 91.1702 172.157 90.0224C174.944 88.8747 178.01 88.5744 180.969 89.1595C183.927 89.7446 186.645 91.1888 188.778 93.3095C190.911 95.4302 192.363 98.1321 192.952 101.074C193.54 104.015 193.238 107.064 192.084 109.835C190.93 112.606 188.975 114.974 186.467 116.64C183.959 118.306 181.01 119.196 177.994 119.196C173.949 119.196 170.069 117.598 167.209 114.754C164.349 111.911 162.742 108.054 162.742 104.032ZM177.994 89.6079C174.147 89.6122 170.46 91.1332 167.74 93.8373C165.02 96.5414 163.49 100.208 163.486 104.032C163.486 106.885 164.337 109.673 165.931 112.045C167.525 114.417 169.791 116.266 172.442 117.358C175.093 118.45 178.01 118.735 180.824 118.179C183.638 117.622 186.223 116.248 188.252 114.231C190.281 112.214 191.662 109.644 192.222 106.846C192.782 104.048 192.495 101.148 191.397 98.5121C190.299 95.8764 188.439 93.6237 186.053 92.0388C183.668 90.4538 180.863 89.6079 177.994 89.6079Z" fill="#0B2F0B"/>
<path d="M148.98 104.031C148.98 98.325 150.682 92.7476 153.87 88.0035C157.059 83.2595 161.59 79.562 166.892 77.3786C172.194 75.1951 178.027 74.6238 183.656 75.7369C189.284 76.85 194.454 79.5976 198.512 83.632C202.57 87.6665 205.333 92.8067 206.452 98.4027C207.572 103.999 206.997 109.799 204.801 115.07C202.605 120.342 198.886 124.847 194.115 128.017C189.343 131.187 183.734 132.879 177.995 132.879C174.185 132.879 170.412 132.132 166.892 130.683C163.372 129.233 160.173 127.108 157.479 124.429C154.784 121.75 152.647 118.57 151.189 115.07C149.731 111.57 148.98 107.819 148.98 104.031ZM177.995 75.9223C172.404 75.9223 166.938 77.5708 162.289 80.6594C157.64 83.748 154.016 88.1379 151.876 93.274C149.737 98.4102 149.177 104.062 150.268 109.514C151.358 114.967 154.051 119.975 158.005 123.906C161.958 127.837 166.996 130.514 172.48 131.599C177.964 132.683 183.648 132.127 188.814 129.999C193.98 127.872 198.395 124.269 201.501 119.647C204.608 115.024 206.266 109.59 206.266 104.031C206.258 96.5784 203.276 89.4338 197.976 84.1643C192.676 78.8948 185.491 75.9307 177.995 75.9223Z" fill="#BCB6B0"/>
<path d="M121.449 104.031C121.449 92.9125 124.765 82.0436 130.978 72.7988C137.191 63.5541 146.022 56.3486 156.353 52.0937C166.685 47.8388 178.054 46.7255 189.022 48.8947C199.99 51.0638 210.064 56.4179 217.972 64.28C225.879 72.142 231.264 82.1589 233.446 93.0638C235.628 103.969 234.508 115.272 230.228 125.544C225.949 135.817 218.702 144.596 209.404 150.774C200.105 156.951 189.174 160.248 177.991 160.248C163 160.231 148.628 154.303 138.029 143.764C127.429 133.225 121.466 118.936 121.449 104.031ZM177.991 48.5542C166.955 48.5542 156.167 51.8079 146.991 57.9037C137.815 63.9996 130.664 72.664 126.441 82.8011C122.217 92.9382 121.112 104.093 123.265 114.854C125.418 125.616 130.733 135.501 138.536 143.259C146.339 151.018 156.282 156.302 167.105 158.442C177.929 160.583 189.148 159.484 199.344 155.285C209.539 151.086 218.254 143.976 224.385 134.853C230.516 125.729 233.788 115.003 233.788 104.031C233.772 89.3229 227.888 75.2218 217.427 64.8214C206.967 54.4211 192.784 48.5708 177.991 48.5542Z" fill="#BCB6B0"/>
<path d="M177.993 110.696C181.897 110.696 185.061 107.55 185.061 103.669C185.061 99.7877 181.897 96.6416 177.993 96.6416C174.09 96.6416 170.926 99.7877 170.926 103.669C170.926 107.55 174.09 110.696 177.993 110.696Z" fill="#285928"/>
<path d="M159.755 131.028C163.659 131.028 166.823 127.882 166.823 124.001C166.823 120.12 163.659 116.974 159.755 116.974C155.852 116.974 152.688 120.12 152.688 124.001C152.688 127.882 155.852 131.028 159.755 131.028Z" fill="#285928"/>
<path d="M230.88 128.073C234.784 128.073 237.948 124.927 237.948 121.046C237.948 117.165 234.784 114.019 230.88 114.019C226.977 114.019 223.812 117.165 223.812 121.046C223.812 124.927 226.977 128.073 230.88 128.073Z" fill="#285928"/>
<path d="M177.996 106.99C179.845 106.99 181.344 105.5 181.344 103.662C181.344 101.824 179.845 100.334 177.996 100.334C176.147 100.334 174.648 101.824 174.648 103.662C174.648 105.5 176.147 106.99 177.996 106.99Z" fill="#231509"/>
<path d="M230.879 124.374C232.728 124.374 234.227 122.884 234.227 121.046C234.227 119.208 232.728 117.718 230.879 117.718C229.03 117.718 227.531 119.208 227.531 121.046C227.531 122.884 229.03 124.374 230.879 124.374Z" fill="#231509"/>
<path d="M159.766 127.698C161.615 127.698 163.114 126.208 163.114 124.37C163.114 122.532 161.615 121.042 159.766 121.042C157.917 121.042 156.418 122.532 156.418 124.37C156.418 126.208 157.917 127.698 159.766 127.698Z" fill="#231509"/>
<path d="M21.758 69.6288C23.607 69.6288 25.1059 68.1388 25.1059 66.3007C25.1059 64.4627 23.607 62.9727 21.758 62.9727C19.909 62.9727 18.4102 64.4627 18.4102 66.3007C18.4102 68.1388 19.909 69.6288 21.758 69.6288Z" fill="#285928"/>
<path d="M177.801 66.4907H30.8672V65.751H178.545V103.845H177.801V66.4907Z" fill="#231509"/>
<path d="M12.0898 66.3026C12.0898 64.4007 12.6571 62.5415 13.7198 60.9602C14.7825 59.3788 16.293 58.1463 18.0603 57.4185C19.8275 56.6907 21.7722 56.5003 23.6483 56.8713C25.5244 57.2423 27.2477 58.1582 28.6003 59.503C29.9529 60.8478 30.874 62.5612 31.2472 64.4265C31.6204 66.2919 31.4288 68.2253 30.6968 69.9824C29.9648 71.7395 28.7252 73.2413 27.1347 74.298C25.5442 75.3546 23.6743 75.9186 21.7614 75.9186C20.4914 75.9186 19.2337 75.6699 18.0603 75.1866C16.8869 74.7034 15.8207 73.995 14.9226 73.1021C14.0245 72.2092 13.3121 71.1491 12.826 69.9825C12.34 68.8158 12.0898 67.5653 12.0898 66.3026ZM21.7614 57.4262C19.9957 57.4262 18.2697 57.9468 16.8015 58.9222C15.3334 59.8975 14.1891 61.2838 13.5134 62.9057C12.8377 64.5277 12.6609 66.3124 13.0054 68.0342C13.3498 69.7561 14.2001 71.3377 15.4486 72.5791C16.6972 73.8204 18.2879 74.6658 20.0197 75.0083C21.7515 75.3508 23.5466 75.175 25.1779 74.5032C26.8092 73.8314 28.2035 72.6937 29.1845 71.234C30.1654 69.7743 30.689 68.0581 30.689 66.3026C30.6863 63.9492 29.7449 61.6931 28.0712 60.029C26.3976 58.365 24.1284 57.4289 21.7614 57.4262Z" fill="#231509"/>
<path d="M44.0705 165.428C45.9195 165.428 47.4184 163.938 47.4184 162.1C47.4184 160.262 45.9195 158.771 44.0705 158.771C42.2215 158.771 40.7227 160.262 40.7227 162.1C40.7227 163.938 42.2215 165.428 44.0705 165.428Z" fill="#285928"/>
<path d="M34.418 162.095C34.418 160.193 34.9852 158.333 36.0479 156.752C37.1106 155.171 38.6211 153.938 40.3884 153.21C42.1556 152.483 44.1003 152.292 45.9764 152.663C47.8525 153.034 49.5758 153.95 50.9284 155.295C52.281 156.64 53.2021 158.353 53.5753 160.219C53.9485 162.084 53.7569 164.017 53.0249 165.774C52.2929 167.532 51.0533 169.033 49.4628 170.09C47.8723 171.147 46.0024 171.711 44.0895 171.711C41.5245 171.711 39.0645 170.697 37.2507 168.894C35.4369 167.091 34.418 164.645 34.418 162.095ZM44.0895 153.218C42.3238 153.218 40.5978 153.739 39.1296 154.714C37.6615 155.689 36.5172 157.076 35.8415 158.698C35.1658 160.32 34.989 162.104 35.3335 163.826C35.6779 165.548 36.5282 167.13 37.7768 168.371C39.0253 169.612 40.616 170.458 42.3478 170.8C44.0796 171.143 45.8747 170.967 47.506 170.295C49.1373 169.623 50.5316 168.486 51.5126 167.026C52.4935 165.566 53.0171 163.85 53.0171 162.095C53.0144 159.741 52.073 157.485 50.3993 155.821C48.7257 154.157 46.4565 153.221 44.0895 153.218Z" fill="#231509"/>
<path d="M334.653 85.163C336.502 85.163 338 83.673 338 81.8349C338 79.9969 336.502 78.5068 334.653 78.5068C332.804 78.5068 331.305 79.9969 331.305 81.8349C331.305 83.673 332.804 85.163 334.653 85.163Z" fill="#285928"/>
<path d="M324.984 81.8367C324.984 79.9349 325.552 78.0757 326.614 76.4943C327.677 74.913 329.188 73.6805 330.955 72.9527C332.722 72.2249 334.667 72.0344 336.543 72.4055C338.419 72.7765 340.142 73.6924 341.495 75.0372C342.847 76.382 343.769 78.0954 344.142 79.9607C344.515 81.826 344.323 83.7595 343.591 85.5166C342.859 87.2737 341.62 88.7755 340.029 89.8321C338.439 90.8888 336.569 91.4527 334.656 91.4527C333.386 91.4527 332.128 91.204 330.955 90.7208C329.781 90.2375 328.715 89.5292 327.817 88.6363C326.919 87.7433 326.207 86.6833 325.721 85.5166C325.235 84.3499 324.984 83.0995 324.984 81.8367ZM334.656 72.9604C332.289 72.9631 330.02 73.8992 328.346 75.5632C326.673 77.2272 325.731 79.4834 325.728 81.8367C325.728 83.5923 326.252 85.3084 327.233 86.7681C328.214 88.2278 329.608 89.3655 331.24 90.0374C332.871 90.7092 334.666 90.885 336.398 90.5425C338.129 90.2 339.72 89.3546 340.969 88.1132C342.217 86.8718 343.068 85.2902 343.412 83.5684C343.757 81.8465 343.58 80.0618 342.904 78.4399C342.228 76.8179 341.084 75.4317 339.616 74.4563C338.148 73.481 336.422 72.9604 334.656 72.9604Z" fill="#231509"/>
<path d="M230.5 82.9615L325.35 81.4766L325.362 82.2158L231.244 83.6897V121.05H230.5V82.9615Z" fill="#231509"/>
<path d="M53.3789 161.726H159.394V124.372H160.138V162.466H53.3789V161.726Z" fill="#231509"/>
<path d="M42.219 83.6943H1.30078V86.282H42.219V83.6943Z" fill="#BCB6B0"/>
<path d="M42.219 91.0859H1.30078V93.6736H42.219V91.0859Z" fill="#BCB6B0"/>
<path d="M42.219 98.4844H1.30078V101.072H42.219V98.4844Z" fill="#BCB6B0"/>
<path d="M64.5315 179.479H23.6133V182.066H64.5315V179.479Z" fill="#BCB6B0"/>
<path d="M64.5315 186.878H23.6133V189.466H64.5315V186.878Z" fill="#BCB6B0"/>
<path d="M64.5315 194.276H23.6133V196.864H64.5315V194.276Z" fill="#BCB6B0"/>
<path d="M355.114 99.5898H314.195V102.178H355.114V99.5898Z" fill="#BCB6B0"/>
<path d="M355.114 106.981H314.195V109.569H355.114V106.981Z" fill="#BCB6B0"/>
<path d="M355.114 114.388H314.195V116.975H355.114V114.388Z" fill="#BCB6B0"/>
<path d="M374.598 320.165L368.779 322.233L357.988 300.9L366.577 297.849L374.598 320.165Z" fill="#B9773E"/>
<path d="M359.332 331.92L359.247 331.685C358.557 329.759 358.664 327.639 359.544 325.791C360.424 323.944 362.005 322.518 363.94 321.828L375.4 317.756L378.095 325.253L359.332 331.92Z" fill="#231509"/>
<path d="M336.748 325.893L330.569 325.892L327.629 302.193L336.749 302.194L336.748 325.893Z" fill="#B9773E"/>
<path d="M338.336 331.847L318.41 331.846V331.595C318.41 330.583 318.611 329.58 319.001 328.645C319.39 327.71 319.962 326.86 320.682 326.144C321.402 325.428 322.257 324.86 323.198 324.473C324.139 324.085 325.147 323.886 326.166 323.886L338.336 323.886L338.336 331.847Z" fill="#231509"/>
<path d="M350.84 174.482L348.152 169.203C348.152 169.203 338.141 171.697 337.23 177.465L350.84 174.482Z" fill="#285928"/>
<path d="M361.936 234.865L354.627 275.415L374.034 309.537L362.44 314.048L342.782 280.971L340.262 271.95L338.75 319.059L328.294 318.744L323.5 274.755L331.189 233.862L361.936 234.865Z" fill="#231509"/>
<path d="M327.022 242.175C326.795 241.171 326.145 210.515 326.145 210.515C326.145 210.515 336.894 175.43 336.992 175.141L337.03 175.029L345.191 171.987C345.306 171.935 348.025 170.73 350.25 171.734C350.821 172.01 351.324 172.407 351.724 172.896C352.125 173.386 352.413 173.956 352.569 174.568C353.495 175.253 360.165 182.683 360.165 192.76L360.417 216.539L366.01 242.319L365.762 242.372C365.61 242.404 358.793 244.446 348.056 244.446C342.09 244.446 327.022 242.175 327.022 242.175Z" fill="#0B2F0B"/>
<path d="M339.808 167.552C345.899 167.552 350.838 162.642 350.838 156.585C350.838 150.528 345.899 145.618 339.808 145.618C333.716 145.618 328.777 150.528 328.777 156.585C328.777 162.642 333.716 167.552 339.808 167.552Z" fill="#B9773E"/>
<path opacity="0.2" d="M355.518 204.892L336.221 231.662L333.371 219.16L355.518 204.892Z" fill="black"/>
<path d="M321.268 232.238C321.959 232.21 322.636 232.033 323.251 231.717C323.866 231.401 324.404 230.956 324.827 230.411C325.25 229.866 325.547 229.236 325.699 228.565C325.85 227.893 325.852 227.197 325.703 226.525L340.042 217.78L332.124 214.098L319.722 222.967C318.603 223.289 317.642 224.009 317.021 224.989C316.4 225.969 316.163 227.142 316.353 228.285C316.544 229.427 317.149 230.461 318.055 231.19C318.961 231.918 320.104 232.291 321.268 232.238Z" fill="#B9773E"/>
<path d="M331.184 214.311L326.273 217.731L330.438 225.084L336.225 220.324L331.184 214.311Z" fill="#285928"/>
<path d="M328.621 214.533L340.173 201.221L335.747 182.859C335.289 180.961 335.542 178.963 336.458 177.237C337.374 175.511 338.89 174.176 340.724 173.48C342.557 172.784 344.583 172.776 346.422 173.456C348.262 174.137 349.789 175.46 350.72 177.178L350.82 177.364L354.898 204.631L334.406 225.515L328.621 214.533Z" fill="#0B2F0B"/>
<path d="M349.197 166.112L340.042 166.438C339.484 166.458 337.969 160.47 337.771 159.228C337.614 158.419 337.167 157.695 336.512 157.19C335.858 156.686 335.041 156.435 334.214 156.485C333.529 156.55 331.8 155.277 330.017 153.77C326.632 150.908 326.808 145.533 330.527 143.115C330.628 143.049 330.728 142.988 330.826 142.934C333.172 141.628 335.917 141.19 338.605 141.156C341.042 141.126 343.549 141.431 345.696 142.578C349.545 144.634 351.593 149.127 351.773 153.468C351.953 157.809 350.554 162.054 348.965 166.101" fill="#231509"/>
<path d="M399.498 331.996H288.102C287.968 331.996 287.84 331.943 287.745 331.849C287.651 331.755 287.598 331.628 287.598 331.495C287.598 331.362 287.651 331.235 287.745 331.141C287.84 331.047 287.968 330.994 288.102 330.994H399.498C399.632 330.994 399.76 331.047 399.854 331.141C399.949 331.235 400.002 331.362 400.002 331.495C400.002 331.628 399.949 331.755 399.854 331.849C399.76 331.943 399.632 331.996 399.498 331.996Z" fill="#0B2F0B"/>
</g>
<defs>
<clipPath id="clip0_3799_8785">
<rect width="400" height="332" rx="2" fill="white"/>
</clipPath>
</defs>
</svg>
