<svg width="56" height="56" viewBox="0 0 56 56" fill="none" xmlns="http://www.w3.org/2000/svg">
<rect x="4" y="4" width="48" height="48" rx="24" fill="#DEECCF"/>
<rect x="4" y="4" width="48" height="48" rx="24" stroke="#F2F8EB" stroke-width="8"/>
<g clip-path="url(#clip0_7871_43551)">
<path d="M28 17V19M28 37V39M20.22 20.22L21.64 21.64M34.36 34.36L35.78 35.78M17 28H19M37 28H39M20.22 35.78L21.64 34.36M34.36 21.64L35.78 20.22M33 28C33 30.7614 30.7614 33 28 33C25.2386 33 23 30.7614 23 28C23 25.2386 25.2386 23 28 23C30.7614 23 33 25.2386 33 28Z" stroke="#98C045" stroke-width="2" stroke-linecap="round" stroke-linejoin="round"/>
</g>
<defs>
<clipPath id="clip0_7871_43551">
<rect width="24" height="24" fill="white" transform="translate(16 16)"/>
</clipPath>
</defs>
</svg>
