<svg width="56" height="56" viewBox="0 0 56 56" fill="none" xmlns="http://www.w3.org/2000/svg">
<rect x="4" y="4" width="48" height="48" rx="24" fill="#DEECCF"/>
<rect x="4" y="4" width="48" height="48" rx="24" stroke="#F2F8EB" stroke-width="8"/>
<path d="M28 38C33.5228 38 38 33.5228 38 28C38 22.4772 33.5228 18 28 18C22.4772 18 18 22.4772 18 28C18 33.5228 22.4772 38 28 38Z" stroke="#98C045" stroke-width="2" stroke-linecap="round" stroke-linejoin="round"/>
<path d="M28 34C31.3137 34 34 31.3137 34 28C34 24.6863 31.3137 22 28 22C24.6863 22 22 24.6863 22 28C22 31.3137 24.6863 34 28 34Z" stroke="#98C045" stroke-width="2" stroke-linecap="round" stroke-linejoin="round"/>
<path d="M28 30C29.1046 30 30 29.1046 30 28C30 26.8954 29.1046 26 28 26C26.8954 26 26 26.8954 26 28C26 29.1046 26.8954 30 28 30Z" stroke="#98C045" stroke-width="2" stroke-linecap="round" stroke-linejoin="round"/>
</svg>
