<svg width="24" height="24" viewBox="0 0 24 24" fill="none" xmlns="http://www.w3.org/2000/svg">
<path d="M23.715 20.6627L19.1489 16.0968C18.7694 15.7172 18.1527 15.7172 17.7761 16.0968C17.7466 16.1263 17.6988 16.1263 17.6694 16.0968L17.2338 15.6611C16.9857 15.413 16.9652 15.0199 17.1645 14.7312C18.2379 13.1759 18.8149 11.3362 18.8149 9.40967C18.8149 6.89788 17.8374 4.5325 16.0583 2.75705C14.2803 0.977761 11.9193 0 9.40388 0C6.89256 0 4.52762 0.977634 2.7525 2.75705C0.97748 4.5324 0 6.89403 0 9.40562C0 11.9174 0.977454 14.2828 2.75655 16.0582C4.53157 17.8336 6.89655 18.8153 9.40793 18.8153C11.3377 18.8153 13.1774 18.2375 14.7323 17.1646C15.0211 16.9653 15.4143 16.9859 15.6624 17.234L16.0979 17.6696C16.1273 17.6991 16.1273 17.7469 16.0979 17.7763C15.7184 18.1559 15.7184 18.7728 16.0979 19.1494L20.6639 23.7163C20.8517 23.9041 21.1008 24 21.3498 24C21.5989 24 21.848 23.9041 22.0357 23.7163L23.7188 22.0329C24.0944 21.6602 24.0945 21.0423 23.715 20.6627ZM3.08274 15.7321C1.39172 14.0418 0.460792 11.7948 0.460792 9.40571C0.460792 7.01749 1.39278 4.77072 3.07894 3.07929C4.76601 1.38894 7.01629 0.460655 9.4042 0.460655C11.7921 0.460655 14.0383 1.39281 15.7295 3.07929C17.4205 4.76667 18.3476 7.01736 18.3476 9.40571C18.3476 11.7941 17.4156 14.0407 15.7295 15.7321C14.0424 17.4235 11.7921 18.3508 9.4042 18.3508C7.01629 18.3508 4.76981 17.4235 3.08274 15.7321ZM16.0377 16.9648C15.7899 16.7148 15.8067 16.3112 16.0556 16.0623C16.3038 15.814 16.7092 15.7997 16.9574 16.0479C17.1971 16.2877 17.1995 16.6787 16.9598 16.9184L16.9105 16.9677C16.6696 17.2087 16.2776 17.2069 16.0377 16.9648ZM23.3888 21.7096L21.7057 23.393C21.5061 23.5926 21.1839 23.5926 20.9852 23.393L16.4192 18.8261C16.2195 18.6264 16.2195 18.3041 16.4192 18.1054L18.1023 16.422C18.2021 16.3222 18.3325 16.2728 18.463 16.2728C18.5935 16.2728 18.7239 16.3222 18.8237 16.422L23.3898 20.9889C23.5885 21.1886 23.5885 21.5099 23.3888 21.7096Z" fill="#713D2B"/>
<path d="M14.5272 4.28049C13.1623 2.91538 11.3418 2.16016 9.40168 2.16016C7.4616 2.16016 5.64498 2.91143 4.2762 4.28049C2.90741 5.64956 2.15625 7.46648 2.15625 9.40692C2.15625 11.3474 2.90739 13.1643 4.2762 14.5333C5.69047 15.9479 7.54661 16.6537 9.40168 16.6537C11.2568 16.6537 13.1128 15.9479 14.5272 14.5333C15.892 13.1682 16.6471 11.3474 16.6471 9.40692C16.6471 7.46648 15.892 5.64574 14.5272 4.28049ZM14.201 14.2031C11.5563 16.8483 7.25107 16.8483 4.60534 14.2031C3.32447 12.922 2.62376 11.2198 2.62376 9.40692C2.62376 7.59301 3.32943 5.8869 4.60534 4.61073C5.8862 3.32963 7.58808 2.62879 9.40064 2.62879C11.2142 2.62879 12.92 3.33459 14.1959 4.61073C15.4768 5.89183 16.1775 7.59402 16.1775 9.40692C16.1795 11.2208 15.4779 12.9231 14.201 14.2031Z" fill="#713D2B"/>
<path d="M15.4117 9.26339C15.304 9.11412 12.7017 5.64062 9.40851 5.64062C6.11937 5.64062 3.51615 9.11434 3.40533 9.26339C3.34406 9.34346 3.34406 9.45516 3.40533 9.53917C3.51306 9.68843 6.11533 13.1619 9.40851 13.1619C12.6976 13.1619 15.3009 9.68822 15.4117 9.53917C15.473 9.4591 15.473 9.34839 15.4117 9.26339ZM9.40851 12.6994C7.59098 12.6994 6.11153 11.2196 6.11153 9.40181C6.11153 7.58395 7.59106 6.10423 9.40851 6.10423C11.226 6.10423 12.7055 7.58403 12.7055 9.40181C12.7055 11.2226 11.2289 12.6994 9.40851 12.6994ZM4.15497 9.71875C3.99543 9.53644 3.99549 9.26722 4.15525 9.08511C4.26127 8.96424 4.38829 8.82479 4.53422 8.67357C4.86585 8.32994 5.65191 8.92425 5.65191 9.40181C5.65191 9.88151 4.86641 10.4764 4.53365 10.1309C4.38781 9.97948 4.2609 9.8398 4.15497 9.71875ZM14.2862 10.1333C13.9544 10.4773 13.1691 9.88376 13.1691 9.40578C13.1691 8.92871 13.9549 8.33507 14.286 8.67856C14.4305 8.82844 14.5565 8.96673 14.662 9.08675C14.8232 9.26998 14.8235 9.54179 14.6623 9.72504C14.5568 9.845 14.4308 9.98331 14.2862 10.1333Z" fill="#713D2B"/>
<path d="M9.40134 7.51953C8.3626 7.51953 7.51562 8.36655 7.51562 9.40529C7.51562 10.4441 8.36263 11.291 9.40134 11.291C10.4401 11.291 11.287 10.444 11.287 9.40529C11.287 8.36653 10.444 7.51953 9.40134 7.51953ZM9.40134 10.8315C8.61561 10.8315 7.97519 10.1911 7.97519 9.40534C7.97519 8.6196 8.61561 7.97916 9.40134 7.97916C10.1871 7.97916 10.8275 8.6196 10.8275 9.40534C10.8275 10.1911 10.1871 10.8315 9.40134 10.8315Z" fill="#713D2B"/>
<path d="M9.40211 8.44141C9.27563 8.44141 9.17188 8.54518 9.17188 8.67169C9.17188 8.79819 9.27563 8.90197 9.40211 8.90197C9.67779 8.90197 9.90015 9.12434 9.90015 9.40009C9.90015 9.5266 10.0039 9.63037 10.1304 9.63037C10.2569 9.63037 10.3606 9.5266 10.3606 9.40009C10.3646 8.8753 9.93473 8.44141 9.40211 8.44141Z" fill="#713D2B"/>
<path d="M8.15583 5.05702C8.20227 5.1183 8.27045 5.15289 8.34358 5.15289C8.39002 5.15289 8.43943 5.13708 8.48192 5.10644C8.58567 5.02935 8.6084 4.88802 8.53132 4.78426L8.13607 4.24365C8.05899 4.13987 7.91769 4.11714 7.81394 4.19423C7.71019 4.27132 7.68746 4.41265 7.76454 4.51642L8.15583 5.05702Z" fill="#713D2B"/>
<path d="M9.40211 4.81028C9.52859 4.81028 9.63235 4.7065 9.63235 4.58V3.91387C9.63235 3.78737 9.52859 3.68359 9.40211 3.68359C9.27563 3.68359 9.17188 3.78737 9.17188 3.91387V4.58099C9.17188 4.70749 9.27563 4.81028 9.40211 4.81028Z" fill="#713D2B"/>
<path d="M10.4637 5.15261C10.5368 5.15261 10.606 5.11801 10.6514 5.05674L11.0467 4.51613C11.1237 4.41236 11.1 4.26707 10.9973 4.19395C10.8935 4.11686 10.7482 4.14058 10.6751 4.24336L10.2799 4.78397C10.2028 4.88775 10.2265 5.03303 10.3293 5.10615C10.3688 5.13778 10.4143 5.15261 10.4637 5.15261Z" fill="#713D2B"/>
<path d="M10.6517 13.7515C10.5746 13.6477 10.4333 13.625 10.3296 13.702C10.2258 13.7791 10.2031 13.9205 10.2802 14.0242L10.6754 14.5648C10.7219 14.6261 10.79 14.6607 10.8632 14.6607C10.9096 14.6607 10.959 14.6449 11.0015 14.6143C11.1053 14.5372 11.128 14.3958 11.0509 14.2921L10.6517 13.7515Z" fill="#713D2B"/>
<path d="M9.40211 14.0039C9.27563 14.0039 9.17188 14.1077 9.17188 14.2342V14.9013C9.17188 15.0278 9.27563 15.1316 9.40211 15.1316C9.52859 15.1316 9.63235 15.0278 9.63235 14.9013V14.2342C9.6363 14.1067 9.53255 14.0039 9.40211 14.0039Z" fill="#713D2B"/>
<path d="M8.15951 13.7515L7.76425 14.2921C7.68718 14.3958 7.71089 14.5411 7.81366 14.6143C7.85615 14.6449 7.9016 14.6607 7.952 14.6607C8.02512 14.6607 8.09429 14.6261 8.13975 14.5648L8.535 14.0242C8.61208 13.9205 8.58836 13.7752 8.48559 13.702C8.38184 13.625 8.23659 13.6477 8.15951 13.7515Z" fill="#713D2B"/>
</svg>
