<svg width="24" height="24" viewBox="0 0 24 24" fill="none" xmlns="http://www.w3.org/2000/svg">
<path d="M23.5912 2.58218C22.4391 2.47385 21.5239 1.56033 21.4174 0.408018C21.4029 0.235377 21.2893 0.0872415 21.1278 0.0271066C20.9653 -0.0319248 20.7826 0.00705817 20.6601 0.128463L18.9818 1.80363C18.3018 2.48307 17.8205 3.32173 17.5721 4.22998C17.276 5.31311 16.9338 6.4313 16.1406 7.22607C14.7112 8.65826 12.288 8.53535 10.2873 8.83844C10.0339 8.87685 9.78199 8.93834 9.53471 9.02346C8.1382 9.50351 7.08802 10.6697 6.75503 12.1086C6.42315 13.5477 6.85526 15.0569 7.89986 16.1016C8.94447 17.1464 10.4535 17.5786 11.8923 17.2466C13.3312 16.9136 14.4972 15.8633 14.9771 14.4666C15.0527 14.2469 15.1096 14.0236 15.1483 13.7987C15.5 11.7556 15.3671 9.26248 16.833 7.79641L17.809 6.82026C17.9438 6.68543 18.1262 6.62416 18.3169 6.62416C19.7657 6.62082 21.1545 6.04275 22.1779 5.01806L23.8707 3.33956C23.9921 3.21704 24.0322 3.0366 23.9731 2.87399C23.9152 2.71249 23.7682 2.59888 23.5967 2.58218L23.5912 2.58218ZM14.32 13.0643C14.3311 14.6448 13.2497 16.0248 11.7118 16.3924C10.1738 16.76 8.58572 16.017 7.88068 14.6014C7.17572 13.1858 7.54101 11.4715 8.76156 10.4658C9.07939 10.2037 9.43347 10.0077 9.80552 9.87834C11.4865 9.29372 11.8719 11.5084 10.6135 12.7669C10.5289 12.8505 10.4821 12.963 10.4821 13.0821C10.4821 13.2002 10.5289 13.3138 10.6135 13.3962C10.7873 13.57 11.069 13.57 11.2427 13.3962L12.0628 12.5761C12.8876 11.7512 14.3147 11.8978 14.32 13.0643ZM21.5599 4.38537C20.7041 5.23696 19.5481 5.71942 18.3417 5.73068C18.3229 5.73086 18.3063 5.71998 18.293 5.70672C18.2798 5.69353 18.2689 5.67696 18.269 5.65829C18.2748 4.45071 18.7583 3.29341 19.6143 2.43943L20.1164 1.93721C20.3157 1.73794 20.6569 1.86121 20.6828 2.14181L20.7479 2.8463C20.7479 2.84662 20.7483 2.84675 20.7485 2.84653C20.7487 2.84631 20.7491 2.84645 20.7492 2.84676C20.7695 3.06135 20.9387 3.23028 21.1533 3.2503C21.7121 3.30812 21.96 3.99099 21.5599 4.38537ZM15.8726 4.28736C13.0428 2.69126 9.61617 2.56095 6.6737 3.93761C3.73038 5.31427 1.63321 8.02758 1.04307 11.2219C0.452834 14.4174 1.44174 17.7011 3.69802 20.0377C5.95429 22.3756 9.20064 23.4793 12.4145 23.0017C15.6275 22.5228 18.4115 20.5224 19.8906 17.6286C21.3695 14.7359 21.3595 11.3066 19.8638 8.42192C19.7502 8.20362 19.8349 7.93409 20.0532 7.82046C20.2714 7.70574 20.5398 7.79039 20.6545 8.00869C22.2838 11.1463 22.2983 14.8776 20.6924 18.0275C19.0865 21.1762 16.0585 23.3561 12.5626 23.8793C9.06679 24.4028 5.53332 23.2043 3.07552 20.6627C0.618795 18.121 -0.459094 14.5491 0.18123 11.0727C0.821582 7.59553 3.10118 4.64154 6.30308 3.14259C9.50384 1.64341 13.2323 1.78375 16.3125 3.51794C16.4974 3.6516 16.5519 3.90222 16.4383 4.10047C16.3259 4.29761 16.082 4.37869 15.8726 4.28736ZM4.21703 13.0641C4.21703 15.4655 5.49774 17.6841 7.57688 18.8848C9.65608 20.0855 12.2185 20.0855 14.2977 18.8848C16.3769 17.6841 17.6576 15.4655 17.6576 13.0641C17.6609 12.026 17.4215 11.0013 16.9571 10.0725C16.8613 9.85526 16.9526 9.60132 17.1653 9.49551C17.378 9.38859 17.6364 9.46766 17.7522 9.67483C18.279 10.7263 18.5518 11.888 18.5485 13.0642C18.5485 15.0824 17.7467 17.0193 16.319 18.4473C14.8913 19.8741 12.9557 20.676 10.9367 20.676C8.91873 20.676 6.98211 19.8741 5.55435 18.4473C4.12776 17.0194 3.32593 15.0824 3.32593 13.0642C3.32593 11.0449 4.12776 9.10913 5.55435 7.68117C6.98205 6.25328 8.91876 5.45134 10.9367 5.45134C12.1294 5.448 13.3043 5.72868 14.3666 6.26776C14.5871 6.37914 14.6751 6.64645 14.5649 6.867C14.4535 7.08642 14.1862 7.1744 13.9657 7.06415C13.028 6.58743 11.9901 6.33905 10.9366 6.34241C9.15473 6.34353 7.44644 7.05303 6.18689 8.31275C4.92623 9.57247 4.21817 11.282 4.21703 13.0641Z" fill="#713D2B"/>
</svg>
